<svg width="42" height="42" viewBox="0 0 42 42" fill="none" xmlns="http://www.w3.org/2000/svg">
<g clip-path="url(#clip0_261_622)">
<path d="M30.8428 34.1515H10.4524C9.51038 34.1515 8.60699 33.7773 7.94091 33.1112C7.27483 32.4451 6.90063 31.5417 6.90063 30.5998V22.6048C6.90027 21.2395 7.42408 19.9262 8.36394 18.9359L17.8879 8.90408C18.3026 8.46722 18.802 8.11934 19.3555 7.88162C19.909 7.64389 20.5051 7.5213 21.1075 7.5213C21.7099 7.5213 22.306 7.64389 22.8595 7.88162C23.413 8.11934 23.9124 8.46722 24.3271 8.90408L33.8511 18.9377C34.7901 19.9271 35.3138 21.239 35.3144 22.6031V30.5998C35.3144 31.5417 34.9402 32.4451 34.2741 33.1112C33.608 33.7773 32.7046 34.1515 31.7627 34.1515H30.8428ZM19.495 9.83996L19.4275 9.9181C18.8362 10.5077 18.584 10.9889 18.5005 11.3619C18.4217 11.7258 18.4785 12.106 18.6604 12.4309C19.0795 13.2478 20.0882 14.0754 21.4449 14.9704C21.8836 15.2581 22.3648 15.5564 22.8532 15.8601C23.7589 16.4231 24.6859 17.0002 25.4104 17.5561C25.984 17.9947 26.5239 18.4848 26.8862 19.0318C27.2626 19.5983 27.4864 20.2873 27.2964 21.0474C27.1135 21.7826 26.5736 22.2781 26 22.6137C25.4264 22.9494 24.7072 23.1944 23.9507 23.3862C22.7342 23.697 21.2425 23.9172 19.7703 24.1321L18.7154 24.2919C16.8685 24.5725 15.1584 24.8833 13.9171 25.3858C12.642 25.9008 12.2282 26.4549 12.2282 27.048C12.2282 27.0658 12.2513 27.2682 12.7219 27.6323C13.1659 27.9733 13.8425 28.3338 14.7286 28.696C16.4903 29.417 18.8753 30.0705 21.3046 30.6228C23.5131 31.1167 25.7349 31.5484 27.9676 31.9174C28.9037 32.0731 29.8414 32.2187 30.7806 32.3543L30.9316 32.3756H31.7627C32.2336 32.3756 32.6853 32.1885 33.0184 31.8555C33.3514 31.5224 33.5385 31.0707 33.5385 30.5998V22.6048C33.5383 21.6947 33.1887 20.8193 32.5618 20.1595L23.0396 10.1259C22.5878 9.64996 21.9762 9.35759 21.322 9.30483C20.6679 9.25206 20.0173 9.44262 19.495 9.83996ZM16.8241 12.6032L9.65322 20.1595C9.02635 20.8193 8.67672 21.6947 8.67649 22.6048V30.5998C8.67649 31.0707 8.86359 31.5224 9.19663 31.8555C9.52967 32.1885 9.98137 32.3756 10.4524 32.3756H21.0081L20.9104 32.3543C18.4561 31.7967 15.9557 31.1165 14.0556 30.3405C13.1108 29.9533 12.262 29.5218 11.6368 29.037C11.0384 28.5753 10.4524 27.9182 10.4524 27.048C10.4524 25.3006 11.8215 24.3168 13.2511 23.7396C14.7126 23.1482 16.6217 22.8126 18.4473 22.5356C18.8226 22.4776 19.1931 22.4219 19.559 22.3686C21.024 22.1538 22.3932 21.9513 23.512 21.6654C24.2082 21.4878 24.7385 21.2931 25.1032 21.0811C25.4672 20.868 25.5525 20.7011 25.5738 20.6176C25.6093 20.4791 25.5969 20.298 25.4069 20.0139C25.2056 19.7108 24.8475 19.3615 24.3325 18.9661C23.6665 18.4564 22.8798 17.9698 22.0345 17.4442C21.5278 17.134 21.0057 16.8031 20.4682 16.4515C19.1363 15.576 17.7334 14.5229 17.0799 13.2372C16.9744 13.0346 16.8888 12.8223 16.8241 12.6032Z" fill="white"/>
<path d="M2.72217 2.29816H40.3286" stroke="white" stroke-width="2.08925" stroke-linecap="round"/>
<path d="M2.72217 40.7403H40.3286" stroke="white" stroke-width="2.08925" stroke-linecap="round"/>
</g>
<defs>
<clipPath id="clip0_261_622">
<rect width="41.7849" height="41.7849" fill="white" transform="translate(0.215088)"/>
</clipPath>
</defs>
</svg>
