<svg width="23" height="15" viewBox="0 0 23 15" fill="none" xmlns="http://www.w3.org/2000/svg">
<path d="M12.45 13.5406C12.4625 13.6781 12.3844 13.7469 12.2156 13.7469C12.1219 13.7469 11.8938 13.6594 11.5313 13.4844C11.175 13.3031 10.9469 13.175 10.8469 13.1C9.69688 13.8812 8.33438 14.2719 6.75938 14.2719C4.92188 14.2719 3.40938 13.5844 2.22188 12.2094C1.09688 10.9094 0.534375 9.325 0.534375 7.45625C0.534375 5.54375 1.0875 3.9375 2.19375 2.6375C3.3625 1.2625 4.88438 0.574999 6.75938 0.574999C7.72188 0.574999 8.64688 0.803124 9.53438 1.25937C10.4281 1.70937 11.1406 2.32812 11.6719 3.11562C11.7531 3.23437 11.7938 3.325 11.7938 3.3875C11.7938 3.475 11.5688 3.76562 11.1188 4.25937C10.675 4.74687 10.4188 4.99062 10.35 4.99062C10.3 4.99062 10.1094 4.8 9.77813 4.41875C9.37813 3.95625 8.99688 3.60312 8.63438 3.35937C8.06563 2.97812 7.47188 2.7875 6.85313 2.7875C5.67188 2.7875 4.70313 3.28125 3.94688 4.26875C3.25938 5.16875 2.91563 6.23125 2.91563 7.45625C2.91563 8.65 3.26875 9.70625 3.975 10.625C4.74375 11.6187 5.70938 12.1156 6.87188 12.1156C8.01563 12.1156 9.06563 11.8031 10.0219 11.1781C10.0094 11.0094 9.95625 10.4156 9.8625 9.39687C9.7875 8.67187 9.75 8.08125 9.75 7.625C9.75 7.51875 9.81875 7.46562 9.95625 7.46562C10.075 7.46562 10.2531 7.475 10.4906 7.49375C10.7281 7.50625 10.9063 7.5125 11.025 7.5125C11.1438 7.5125 11.325 7.50625 11.5688 7.49375C11.8125 7.48125 11.9938 7.475 12.1125 7.475C12.2438 7.475 12.3094 7.575 12.3094 7.775C12.3094 7.99375 12.3 8.325 12.2813 8.76875C12.2688 9.20625 12.2625 9.53437 12.2625 9.75312C12.2625 10.6531 12.3219 11.8719 12.4406 13.4094L12.45 13.5406ZM22.65 2.61875C22.65 2.78125 22.5938 2.8625 22.4813 2.8625C22.3063 2.8625 21.2 2.825 19.1625 2.75C19.1063 4.65625 19.0781 6.18437 19.0781 7.33437C19.0781 8.05312 19.1031 9.13125 19.1531 10.5687C19.2094 12.0062 19.2375 13.0844 19.2375 13.8031C19.2375 13.9344 19.1469 14 18.9656 14C18.8531 14 18.6813 13.9906 18.45 13.9719C18.2188 13.9531 18.0438 13.9437 17.925 13.9437C17.8125 13.9437 17.6406 13.9531 17.4094 13.9719C17.1781 13.9906 17.0063 14 16.8938 14C16.7375 14 16.6594 13.9219 16.6594 13.7656C16.6594 13.0531 16.6875 11.9844 16.7438 10.5594C16.8063 9.12812 16.8375 8.05312 16.8375 7.33437C16.8375 6.22187 16.8031 4.69375 16.7344 2.75C15.1219 2.85 13.9406 2.9 13.1906 2.9C13.1156 2.9 13.0781 2.86875 13.0781 2.80625C13.0781 2.69375 13.1063 2.53125 13.1625 2.31875C13.2313 2.04375 13.2719 1.88125 13.2844 1.83125C13.2969 1.6125 13.3406 1.30937 13.4156 0.921874C13.4469 0.840624 13.5 0.799999 13.575 0.799999L13.6875 0.809374C15.9 0.940624 17.3594 1.00625 18.0656 1.00625C18.6906 1.00625 19.7125 0.959374 21.1313 0.865624C22.1 0.803124 22.5031 0.771874 22.3406 0.771874C22.5031 0.771874 22.5938 0.828124 22.6125 0.940624C22.6 0.871874 22.5938 1.175 22.5938 1.85C22.5938 1.93125 22.6031 2.05937 22.6219 2.23437C22.6406 2.40312 22.65 2.53125 22.65 2.61875Z" fill="white"/>
</svg>
