<svg width="266" height="71" viewBox="0 0 266 71" fill="none" xmlns="http://www.w3.org/2000/svg">
<path d="M35.8438 34.6572C35.8438 35.1455 35.5589 35.3896 34.9893 35.3896C34.1755 35.3896 32.9792 35.2513 31.4004 34.9746C29.7728 34.6816 28.5765 34.527 27.8115 34.5107C24.6377 36.1383 21.6592 36.9521 18.876 36.9521C13.9118 36.9521 9.64746 35.1943 6.08301 31.6787C2.53483 28.1468 0.760742 23.9069 0.760742 18.959C0.760742 13.8971 2.51042 9.61654 6.00977 6.11719C9.52539 2.60156 13.8141 0.84375 18.876 0.84375C21.2848 0.84375 23.7751 1.38086 26.3467 2.45508C29.1462 3.61068 31.1888 5.10807 32.4746 6.94727C32.7839 7.38672 32.9385 7.76107 32.9385 8.07031C32.9385 8.55859 32.0352 9.80371 30.2285 11.8057C28.5358 13.6774 27.3802 14.8086 26.7617 15.1992C26.4362 15.4108 26.1107 15.5166 25.7852 15.5166C25.5085 15.5166 24.7516 15.1341 23.5146 14.3691C22.2939 13.5879 20.943 13.1973 19.4619 13.1973C17.8994 13.1973 16.5729 13.7669 15.4824 14.9062C14.4082 16.0293 13.8711 17.3802 13.8711 18.959C13.8711 20.5378 14.4408 21.9294 15.5801 23.1338C16.7357 24.3382 18.0947 24.9404 19.6572 24.9404C20.7152 24.9404 21.6673 24.7451 22.5137 24.3545C22.4811 23.9476 22.3509 22.8001 22.123 20.9121C21.9603 19.4961 21.8789 18.3568 21.8789 17.4941C21.8789 17.3151 21.9115 17.1523 21.9766 17.0059C22.0742 16.9082 22.2451 16.8594 22.4893 16.8594C22.6032 16.8594 23.0426 16.9082 23.8076 17.0059C24.9469 17.1361 26.5501 17.2012 28.6172 17.2012C29.3333 17.2012 30.4076 17.1686 31.8398 17.1035C33.2721 17.0384 34.3464 17.0059 35.0625 17.0059C35.5345 17.0059 35.7705 17.2012 35.7705 17.5918C35.7705 18.4707 35.6891 19.7891 35.5264 21.5469C35.3799 23.3047 35.3066 24.623 35.3066 25.502C35.3066 26.5273 35.3962 28.0817 35.5752 30.165C35.7542 32.2321 35.8438 33.7295 35.8438 34.6572ZM57.3525 12.9287C57.3525 13.5309 57.3037 14.4505 57.2061 15.6875C57.1084 16.9082 57.0596 17.8278 57.0596 18.4463C57.0596 19.0485 57.084 19.96 57.1328 21.1807C57.1816 22.3851 57.2061 23.2884 57.2061 23.8906C57.2061 24.6068 56.4574 24.9648 54.96 24.9648C54.6182 24.9648 54.1706 24.9486 53.6172 24.916C53.0638 24.8672 52.7139 24.8428 52.5674 24.8428C51.3955 24.8428 50.8096 25.2985 50.8096 26.21C50.8096 27.1702 50.8665 28.6107 50.9805 30.5312C51.0944 32.4518 51.1514 33.8923 51.1514 34.8525C51.1514 35.6826 50.8014 36.0977 50.1016 36.0977C49.5807 36.0977 48.7913 36.0732 47.7334 36.0244C46.6755 35.9756 45.8861 35.9512 45.3652 35.9512C44.8118 35.9512 43.9736 35.9593 42.8506 35.9756C41.7438 35.9919 40.9137 36 40.3604 36C39.6605 36 39.3105 35.6501 39.3105 34.9502V23.5488C39.3105 20.0007 38.9606 16.9489 38.2607 14.3936C38.2119 14.2145 38.1875 14.0599 38.1875 13.9297C38.1875 13.6042 38.3258 13.3926 38.6025 13.2949C39.0094 13.1484 39.8639 13.0182 41.166 12.9043C42.6797 12.7741 43.6156 12.6764 43.9736 12.6113C47.2939 11.944 49.0599 11.6104 49.2715 11.6104C49.597 11.6104 49.7923 12.1475 49.8574 13.2217C49.9388 14.2959 50.0934 14.833 50.3213 14.833C50.1748 14.833 50.8258 14.3936 52.2744 13.5146C53.7393 12.6357 55.2204 12.1963 56.7178 12.1963C57.141 12.1963 57.3525 12.4404 57.3525 12.9287ZM84.0859 23.0117C84.0859 24.7044 83.557 25.681 82.499 25.9414C82.1247 26.0391 80.0088 26.3076 76.1514 26.7471L70.4385 27.4062C70.6338 27.9596 71.1709 28.3991 72.0498 28.7246C72.7497 28.9688 73.4658 29.0908 74.1982 29.0908C74.9307 29.0908 75.9072 28.8874 77.1279 28.4805C78.3649 28.0736 79.0729 27.8701 79.252 27.8701C79.5124 27.8701 79.724 28.0166 79.8867 28.3096C80.1309 28.863 80.5215 29.6768 81.0586 30.751C81.0586 30.7673 81.3678 31.2148 81.9863 32.0938C82.5397 32.875 82.8164 33.3063 82.8164 33.3877C82.8164 33.5667 82.7106 33.7539 82.499 33.9492C80.6924 35.6908 77.5755 36.5615 73.1484 36.5615C68.9167 36.5615 65.6126 35.5605 63.2363 33.5586C60.681 31.4264 59.4033 28.2933 59.4033 24.1592C59.4033 20.432 60.6322 17.307 63.0898 14.7842C65.5638 12.2614 68.6481 11 72.3428 11C75.5654 11 78.3242 12.1963 80.6191 14.5889C82.9303 16.9652 84.0859 19.7728 84.0859 23.0117ZM74.3447 21.2539C74.3447 20.7656 74.1494 20.3018 73.7588 19.8623C73.3844 19.4229 72.9613 19.2031 72.4893 19.2031C71.9196 19.2031 71.3906 19.4147 70.9023 19.8379C70.4303 20.2448 70.1943 20.7249 70.1943 21.2783C70.1943 21.6527 70.4629 21.8398 71 21.8398C71.3092 21.8398 71.7243 21.7992 72.2451 21.7178C72.9124 21.6201 73.3275 21.5632 73.4902 21.5469C74.0599 21.498 74.3447 21.4004 74.3447 21.2539ZM111.088 23.0117C111.088 24.7044 110.559 25.681 109.501 25.9414C109.127 26.0391 107.011 26.3076 103.153 26.7471L97.4404 27.4062C97.6357 27.9596 98.1729 28.3991 99.0518 28.7246C99.7516 28.9688 100.468 29.0908 101.2 29.0908C101.933 29.0908 102.909 28.8874 104.13 28.4805C105.367 28.0736 106.075 27.8701 106.254 27.8701C106.514 27.8701 106.726 28.0166 106.889 28.3096C107.133 28.863 107.523 29.6768 108.061 30.751C108.061 30.7673 108.37 31.2148 108.988 32.0938C109.542 32.875 109.818 33.3063 109.818 33.3877C109.818 33.5667 109.713 33.7539 109.501 33.9492C107.694 35.6908 104.577 36.5615 100.15 36.5615C95.9186 36.5615 92.6146 35.5605 90.2383 33.5586C87.6829 31.4264 86.4053 28.2933 86.4053 24.1592C86.4053 20.432 87.6341 17.307 90.0918 14.7842C92.5658 12.2614 95.6501 11 99.3447 11C102.567 11 105.326 12.1963 107.621 14.5889C109.932 16.9652 111.088 19.7728 111.088 23.0117ZM101.347 21.2539C101.347 20.7656 101.151 20.3018 100.761 19.8623C100.386 19.4229 99.9632 19.2031 99.4912 19.2031C98.9215 19.2031 98.3926 19.4147 97.9043 19.8379C97.4323 20.2448 97.1963 20.7249 97.1963 21.2783C97.1963 21.6527 97.4648 21.8398 98.002 21.8398C98.3112 21.8398 98.7262 21.7992 99.2471 21.7178C99.9144 21.6201 100.329 21.5632 100.492 21.5469C101.062 21.498 101.347 21.4004 101.347 21.2539ZM140.922 35.0967C140.922 35.764 140.621 36.0977 140.019 36.0977C139.465 36.0977 138.643 36.0732 137.553 36.0244C136.462 35.9756 135.648 35.9512 135.111 35.9512C134.542 35.9512 133.687 35.9593 132.548 35.9756C131.425 35.9919 130.578 36 130.009 36C129.374 36 129.057 35.585 129.057 34.7549C129.057 34.0062 129.073 32.8994 129.105 31.4346C129.138 29.9535 129.154 28.8385 129.154 28.0898C129.154 27.5365 129.138 26.7064 129.105 25.5996C129.073 24.4928 129.057 23.6628 129.057 23.1094C129.057 22.1654 128.593 21.6934 127.665 21.6934C126.721 21.6934 126.249 22.1491 126.249 23.0605V34.8525C126.249 35.6826 125.899 36.0977 125.199 36.0977C124.678 36.0977 123.889 36.0732 122.831 36.0244C121.773 35.9756 120.984 35.9512 120.463 35.9512C119.91 35.9512 119.071 35.9593 117.948 35.9756C116.841 35.9919 116.011 36 115.458 36C114.758 36 114.408 35.6501 114.408 34.9502V23.5488C114.408 20.0169 114.026 16.8512 113.261 14.0518C113.212 13.8727 113.188 13.7181 113.188 13.5879C113.188 13.2786 113.326 13.0671 113.603 12.9531C115.263 12.7415 117.232 12.473 119.511 12.1475C122.88 11.4964 124.817 11.1709 125.321 11.1709C125.647 11.1709 125.85 11.708 125.932 12.7822C126.013 13.8564 126.143 14.3936 126.322 14.3936C126.192 14.3936 127.03 13.9215 128.837 12.9775C130.66 12.0335 132.165 11.5615 133.354 11.5615C135.323 11.5615 137.024 12.0254 138.456 12.9531C140.1 14.0436 140.922 15.5247 140.922 17.3965V35.0967ZM182.011 11.6348C182.011 11.9603 181.832 12.123 181.474 12.123C181.881 12.123 179.846 12.001 175.37 11.7568C175.305 14.6214 175.272 16.4688 175.272 17.2988C175.272 19.3008 175.354 22.3037 175.517 26.3076C175.696 30.3115 175.785 33.3063 175.785 35.292C175.785 35.7803 175.541 36.0244 175.053 36.0244C174.369 36.0244 173.327 35.9919 171.928 35.9268C170.528 35.8454 169.478 35.8047 168.778 35.8047C168.111 35.8047 167.11 35.8372 165.775 35.9023C164.441 35.9674 163.44 36 162.772 36C162.235 36 161.967 35.764 161.967 35.292C161.967 33.3063 162.048 30.3115 162.211 26.3076C162.39 22.3037 162.479 19.3008 162.479 17.2988C162.479 16.5013 162.447 14.7028 162.382 11.9033C160.95 12.001 158.801 12.18 155.937 12.4404C155.676 12.3265 155.546 12.2533 155.546 12.2207C155.546 12.0417 155.684 11.2116 155.961 9.73047C156.27 8.11914 156.441 7.17513 156.474 6.89844C156.522 5.40104 156.685 3.60254 156.962 1.50293C157.011 1.37272 157.133 1.30762 157.328 1.30762C157.393 1.30762 157.523 1.32389 157.719 1.35645C160.974 1.71452 164.978 1.89355 169.73 1.89355C171.179 1.89355 173.897 1.70638 177.885 1.33203C179.87 1.13672 180.937 1.03906 181.083 1.03906C181.571 1.03906 181.815 1.16113 181.815 1.40527C181.815 1.99121 181.775 2.87826 181.693 4.06641C181.612 5.23828 181.571 6.11719 181.571 6.70312C181.571 7.25651 181.645 8.07845 181.791 9.16895C181.938 10.2594 182.011 11.0814 182.011 11.6348ZM202.616 12.9287C202.616 13.5309 202.567 14.4505 202.47 15.6875C202.372 16.9082 202.323 17.8278 202.323 18.4463C202.323 19.0485 202.348 19.96 202.396 21.1807C202.445 22.3851 202.47 23.2884 202.47 23.8906C202.47 24.6068 201.721 24.9648 200.224 24.9648C199.882 24.9648 199.434 24.9486 198.881 24.916C198.327 24.8672 197.978 24.8428 197.831 24.8428C196.659 24.8428 196.073 25.2985 196.073 26.21C196.073 27.1702 196.13 28.6107 196.244 30.5312C196.358 32.4518 196.415 33.8923 196.415 34.8525C196.415 35.6826 196.065 36.0977 195.365 36.0977C194.844 36.0977 194.055 36.0732 192.997 36.0244C191.939 35.9756 191.15 35.9512 190.629 35.9512C190.076 35.9512 189.237 35.9593 188.114 35.9756C187.007 35.9919 186.177 36 185.624 36C184.924 36 184.574 35.6501 184.574 34.9502V23.5488C184.574 20.0007 184.224 16.9489 183.524 14.3936C183.476 14.2145 183.451 14.0599 183.451 13.9297C183.451 13.6042 183.59 13.3926 183.866 13.2949C184.273 13.1484 185.128 13.0182 186.43 12.9043C187.943 12.7741 188.879 12.6764 189.237 12.6113C192.558 11.944 194.324 11.6104 194.535 11.6104C194.861 11.6104 195.056 12.1475 195.121 13.2217C195.202 14.2959 195.357 14.833 195.585 14.833C195.438 14.833 196.09 14.3936 197.538 13.5146C199.003 12.6357 200.484 12.1963 201.981 12.1963C202.405 12.1963 202.616 12.4404 202.616 12.9287ZM233.256 13.9785C233.256 14.0924 233.223 14.2959 233.158 14.5889C232.458 18.2998 232.108 21.2865 232.108 23.5488C232.108 25.3066 232.239 27.862 232.499 31.2148C232.678 33.7051 232.768 34.9502 232.768 34.9502C232.768 35.6012 232.418 35.9512 231.718 36C231.718 36 230.253 36 227.323 36C226.786 36 225.972 36.0326 224.882 36.0977C223.808 36.1628 223.002 36.1953 222.465 36.1953C221.798 36.1953 221.448 35.8698 221.415 35.2188C221.382 34.5677 221.269 34.2422 221.073 34.2422C221.155 34.2422 220.447 34.6328 218.949 35.4141C217.452 36.179 216.207 36.5615 215.214 36.5615C212.024 36.5615 209.42 35.3164 207.401 32.8262C205.513 30.4987 204.569 27.6911 204.569 24.4033C204.569 20.5785 205.635 17.3965 207.768 14.8574C209.542 12.7578 212.423 11.708 216.41 11.708C217.24 11.708 218.404 11.9766 219.901 12.5137C221.399 13.0345 222.131 13.2949 222.099 13.2949C222.229 13.2949 222.335 13.0101 222.416 12.4404C222.514 11.8708 222.742 11.5859 223.1 11.5859C223.637 11.5859 225.24 11.8545 227.909 12.3916C230.465 12.9124 232.1 13.2786 232.816 13.4902C233.109 13.5879 233.256 13.7507 233.256 13.9785ZM221.073 23.8418C221.073 22.3444 220.341 21.5957 218.876 21.5957C218.209 21.5957 217.647 21.8073 217.191 22.2305C216.736 22.6536 216.508 23.1908 216.508 23.8418C216.508 24.4928 216.736 25.0218 217.191 25.4287C217.647 25.8356 218.209 26.0391 218.876 26.0391C219.511 26.0391 220.032 25.8356 220.438 25.4287C220.862 25.0055 221.073 24.4766 221.073 23.8418ZM249.271 6.36133C249.271 9.7793 247.188 11.4883 243.021 11.4883C241.247 11.4883 239.799 11.0814 238.676 10.2676C237.406 9.35612 236.771 8.05404 236.771 6.36133C236.771 4.75 237.431 3.44792 238.749 2.45508C239.953 1.54362 241.378 1.08789 243.021 1.08789C244.665 1.08789 246.09 1.54362 247.294 2.45508C248.612 3.44792 249.271 4.75 249.271 6.36133ZM249.516 12.5625C249.516 12.6764 249.499 12.888 249.467 13.1973C248.897 19.3171 248.612 23.1826 248.612 24.7939C248.612 25.8844 248.637 27.5283 248.686 29.7256C248.751 31.9066 248.783 33.5505 248.783 34.6572C248.783 35.1943 248.767 35.5036 248.734 35.585C248.653 35.8617 248.401 36 247.978 36C247.408 36 246.553 35.9674 245.414 35.9023C244.291 35.8372 243.445 35.8047 242.875 35.8047C242.305 35.8047 241.451 35.8372 240.312 35.9023C239.188 35.9674 238.342 36 237.772 36C237.349 36 237.097 35.8617 237.016 35.585C236.983 35.5036 236.967 35.1943 236.967 34.6572C236.967 33.5505 236.991 31.9066 237.04 29.7256C237.089 27.5283 237.113 25.8844 237.113 24.7939C237.113 22.32 236.837 18.4544 236.283 13.1973C236.234 12.888 236.21 12.6683 236.21 12.5381C236.21 12.1149 236.462 11.9033 236.967 11.9033C237.618 11.9033 238.594 12.0091 239.896 12.2207C241.215 12.4323 242.208 12.5381 242.875 12.5381C243.542 12.5381 244.527 12.4323 245.829 12.2207C247.147 12.0091 248.132 11.9033 248.783 11.9033C249.271 11.9033 249.516 12.123 249.516 12.5625ZM265.775 2.25977C265.775 2.35742 265.759 2.56901 265.727 2.89453C265.255 8.10286 265.019 13.1566 265.019 18.0557C265.019 19.8623 265.043 22.5804 265.092 26.21C265.157 29.8232 265.189 32.5332 265.189 34.3398C265.189 35.0397 265.181 35.4141 265.165 35.4629C265.084 35.821 264.823 36 264.384 36C263.814 36 262.96 35.9674 261.82 35.9023C260.697 35.8372 259.851 35.8047 259.281 35.8047C258.712 35.8047 257.857 35.8372 256.718 35.9023C255.595 35.9674 254.748 36 254.179 36C253.723 36 253.454 35.821 253.373 35.4629C253.373 35.4141 253.373 35.0397 253.373 34.3398C253.373 32.5332 253.397 29.8232 253.446 26.21C253.495 22.5804 253.52 19.8623 253.52 18.0557C253.52 16.2979 253.397 13.6693 253.153 10.1699C252.925 6.67057 252.812 4.05013 252.812 2.30859C252.812 1.9668 252.893 1.75521 253.056 1.67383C253.153 1.625 253.308 1.60059 253.52 1.60059C254.171 1.60059 255.131 1.625 256.4 1.67383C257.686 1.72266 258.646 1.74707 259.281 1.74707C259.916 1.74707 260.868 1.72266 262.138 1.67383C263.424 1.625 264.384 1.60059 265.019 1.60059C265.523 1.60059 265.775 1.82031 265.775 2.25977Z" fill="#C0D866" fill-opacity="0.7"/>
<path d="M31.2979 57.6074H28.9688V70H27.46V57.6074H25.3945V56.2012H27.46V53.7695C27.46 52.5586 27.7529 51.6357 28.3389 51.001C28.9834 50.3174 29.7891 49.9756 30.7559 49.9756C30.8047 49.9756 30.9854 49.9854 31.2979 50.0049V51.2793C30.5166 51.377 29.9941 51.5186 29.7305 51.7041C29.2129 52.0557 28.9541 52.7441 28.9541 53.7695V56.2012H31.2979V57.6074ZM40.2334 55.9521C42.3623 55.9521 44.1006 56.7676 45.4482 58.3984C46.4639 59.6387 46.9717 61.2109 46.9717 63.1152C46.9717 64.209 46.7422 65.2734 46.2832 66.3086C45.6973 67.6172 44.7646 68.6377 43.4854 69.3701C42.46 69.9561 41.3467 70.249 40.1455 70.249C38.8174 70.249 37.6064 69.9072 36.5127 69.2236C34.4521 67.9346 33.4219 65.8789 33.4219 63.0566C33.4219 60.8105 34.0908 59.0576 35.4287 57.7979C36.7373 56.5674 38.3389 55.9521 40.2334 55.9521ZM40.2188 57.373C38.5684 57.373 37.2354 57.9736 36.2197 59.1748C35.3896 60.1611 34.9746 61.4795 34.9746 63.1299C34.9746 64.8877 35.4629 66.2695 36.4395 67.2754C37.4453 68.3105 38.7051 68.8281 40.2188 68.8281C41.9473 68.8281 43.2998 68.1689 44.2764 66.8506C45.0381 65.8057 45.4189 64.5557 45.4189 63.1006C45.4189 61.2646 44.9014 59.8438 43.8662 58.8379C42.8604 57.8613 41.6445 57.373 40.2188 57.373ZM50.7656 70V56.2012H52.2598V58.6768C52.6602 57.8369 53.0898 57.2363 53.5488 56.875C54.3203 56.2598 55.2529 55.9521 56.3467 55.9521C56.6006 55.9521 56.8008 55.957 56.9473 55.9668V57.417H56.4492C55.3066 57.417 54.3643 57.8174 53.6221 58.6182C53.0752 59.2139 52.6992 59.8779 52.4941 60.6104C52.3379 61.1182 52.2598 61.8506 52.2598 62.8076V70H50.7656ZM79.3594 58.75V56.2012H80.8535V70H79.3594V66.9531C78.002 69.1504 76.2832 70.249 74.2031 70.249C72.3379 70.249 70.7852 69.5605 69.5449 68.1836C68.3926 66.9141 67.8164 65.2197 67.8164 63.1006C67.8164 60.6982 68.5586 58.8379 70.043 57.5195C71.2344 56.4746 72.6113 55.9521 74.1738 55.9521C75.4238 55.9521 76.5566 56.2793 77.5723 56.9336C78.207 57.334 78.8027 57.9395 79.3594 58.75ZM74.291 57.373C72.6992 57.373 71.4736 57.9639 70.6143 59.1455C69.7842 60.2783 69.3691 61.626 69.3691 63.1885C69.3691 64.9658 69.9062 66.3916 70.9805 67.4658C71.8887 68.374 72.9678 68.8281 74.2178 68.8281C75.7803 68.8281 77.0791 68.1641 78.1143 66.8359C78.5635 66.25 78.9004 65.5518 79.125 64.7412C79.3105 64.0967 79.4033 63.4766 79.4033 62.8809C79.4033 61.1719 78.915 59.8291 77.9385 58.8525C76.9521 57.8662 75.7363 57.373 74.291 57.373ZM96.3516 67.334V70H94.8574V50.0049H96.3516V58.9258C96.9668 58.0273 97.6455 57.334 98.3877 56.8457C99.3154 56.25 100.331 55.9521 101.435 55.9521C103.622 55.9521 105.292 56.792 106.444 58.4717C107.333 59.7705 107.777 61.333 107.777 63.1592C107.777 65.3564 107.133 67.1094 105.844 68.418C104.652 69.6387 103.188 70.249 101.449 70.249C100.229 70.249 99.1152 69.8975 98.1094 69.1943C97.5039 68.7842 96.918 68.1641 96.3516 67.334ZM101.347 57.373C99.8428 57.373 98.5977 57.9443 97.6113 59.0869C96.752 60.0732 96.3223 61.3965 96.3223 63.0566C96.3223 64.873 96.7959 66.2988 97.7432 67.334C98.6416 68.3301 99.8184 68.8281 101.273 68.8281C102.924 68.8281 104.188 68.2275 105.067 67.0264C105.839 65.9912 106.225 64.7168 106.225 63.2031C106.225 61.5527 105.766 60.1465 104.848 58.9844C103.998 57.9102 102.831 57.373 101.347 57.373ZM123.817 63.7451H111.938C112.045 64.9072 112.367 65.8691 112.904 66.6309C113.93 68.0957 115.321 68.8281 117.079 68.8281C118.212 68.8281 119.301 68.4473 120.346 67.6855C120.932 67.2461 121.391 66.7334 121.723 66.1475L122.968 66.8066C122.597 67.5391 122.055 68.1885 121.342 68.7549C120.111 69.751 118.705 70.249 117.123 70.249C115.727 70.249 114.462 69.8877 113.329 69.165C112.343 68.5205 111.601 67.6904 111.103 66.6748C110.585 65.5908 110.326 64.4238 110.326 63.1738C110.326 61.0938 110.937 59.3848 112.157 58.0469C113.466 56.6504 115.116 55.9521 117.108 55.9521C119.452 55.9521 121.259 56.8506 122.528 58.6475C123.427 59.8975 123.876 61.2793 123.876 62.793C123.876 63.0371 123.856 63.3545 123.817 63.7451ZM112.011 62.3389H122.221C122.162 61.2549 121.894 60.3564 121.415 59.6436C120.985 59.0088 120.419 58.4863 119.716 58.0762C118.915 57.6074 118.036 57.373 117.079 57.373C115.829 57.373 114.735 57.7686 113.798 58.5596C112.987 59.2529 112.45 60.166 112.187 61.2988C112.128 61.5234 112.069 61.8701 112.011 62.3389ZM131.347 57.6074H129.091V67.8174C129.091 68.1885 129.169 68.4229 129.325 68.5205C129.462 68.5986 129.716 68.6377 130.087 68.6377H131.347V70H129.721C128.998 70 128.466 69.8584 128.124 69.5752C127.772 69.2725 127.597 68.7793 127.597 68.0957V57.6074H125.502V56.2012H127.597V51.543H129.091V56.2012H131.347V57.6074ZM138.759 57.6074H136.503V67.8174C136.503 68.1885 136.581 68.4229 136.737 68.5205C136.874 68.5986 137.128 68.6377 137.499 68.6377H138.759V70H137.133C136.41 70 135.878 69.8584 135.536 69.5752C135.185 69.2725 135.009 68.7793 135.009 68.0957V57.6074H132.914V56.2012H135.009V51.543H136.503V56.2012H138.759V57.6074ZM154.579 63.7451H142.699C142.807 64.9072 143.129 65.8691 143.666 66.6309C144.691 68.0957 146.083 68.8281 147.841 68.8281C148.974 68.8281 150.062 68.4473 151.107 67.6855C151.693 67.2461 152.152 66.7334 152.484 66.1475L153.729 66.8066C153.358 67.5391 152.816 68.1885 152.104 68.7549C150.873 69.751 149.467 70.249 147.885 70.249C146.488 70.249 145.224 69.8877 144.091 69.165C143.104 68.5205 142.362 67.6904 141.864 66.6748C141.347 65.5908 141.088 64.4238 141.088 63.1738C141.088 61.0938 141.698 59.3848 142.919 58.0469C144.228 56.6504 145.878 55.9521 147.87 55.9521C150.214 55.9521 152.021 56.8506 153.29 58.6475C154.188 59.8975 154.638 61.2793 154.638 62.793C154.638 63.0371 154.618 63.3545 154.579 63.7451ZM142.772 62.3389H152.982C152.924 61.2549 152.655 60.3564 152.177 59.6436C151.747 59.0088 151.181 58.4863 150.478 58.0762C149.677 57.6074 148.798 57.373 147.841 57.373C146.591 57.373 145.497 57.7686 144.56 58.5596C143.749 59.2529 143.212 60.166 142.948 61.2988C142.89 61.5234 142.831 61.8701 142.772 62.3389ZM158.256 70V56.2012H159.75V58.6768C160.15 57.8369 160.58 57.2363 161.039 56.875C161.811 56.2598 162.743 55.9521 163.837 55.9521C164.091 55.9521 164.291 55.957 164.438 55.9668V57.417H163.939C162.797 57.417 161.854 57.8174 161.112 58.6182C160.565 59.2139 160.189 59.8779 159.984 60.6104C159.828 61.1182 159.75 61.8506 159.75 62.8076V70H158.256ZM180.565 57.6074H178.236V70H176.728V57.6074H174.662V56.2012H176.728V53.7695C176.728 52.5586 177.021 51.6357 177.606 51.001C178.251 50.3174 179.057 49.9756 180.023 49.9756C180.072 49.9756 180.253 49.9854 180.565 50.0049V51.2793C179.784 51.377 179.262 51.5186 178.998 51.7041C178.48 52.0557 178.222 52.7441 178.222 53.7695V56.2012H180.565V57.6074ZM191.947 65.1074V56.2012H193.456V65.1074C193.456 66.3477 193.266 67.2754 192.885 67.8906C192.445 68.6035 191.835 69.1748 191.054 69.6045C190.253 70.0342 189.394 70.249 188.476 70.249C187.011 70.249 185.785 69.7656 184.799 68.7988C183.9 67.9004 183.451 66.6699 183.451 65.1074V56.2012H184.945V65.1074C184.945 66.3086 185.302 67.2461 186.015 67.9199C186.669 68.5254 187.479 68.8281 188.446 68.8281C189.599 68.8281 190.517 68.4473 191.2 67.6855C191.698 67.1484 191.947 66.2891 191.947 65.1074ZM201.864 57.6074H199.608V67.8174C199.608 68.1885 199.687 68.4229 199.843 68.5205C199.979 68.5986 200.233 68.6377 200.604 68.6377H201.864V70H200.238C199.516 70 198.983 69.8584 198.642 69.5752C198.29 69.2725 198.114 68.7793 198.114 68.0957V57.6074H196.02V56.2012H198.114V51.543H199.608V56.2012H201.864V57.6074ZM213.451 65.1074V56.2012H214.96V65.1074C214.96 66.3477 214.77 67.2754 214.389 67.8906C213.949 68.6035 213.339 69.1748 212.558 69.6045C211.757 70.0342 210.897 70.249 209.979 70.249C208.515 70.249 207.289 69.7656 206.303 68.7988C205.404 67.9004 204.955 66.6699 204.955 65.1074V56.2012H206.449V65.1074C206.449 66.3086 206.806 67.2461 207.519 67.9199C208.173 68.5254 208.983 68.8281 209.95 68.8281C211.103 68.8281 212.021 68.4473 212.704 67.6855C213.202 67.1484 213.451 66.2891 213.451 65.1074ZM219.516 70V56.2012H221.01V58.6768C221.41 57.8369 221.84 57.2363 222.299 56.875C223.07 56.2598 224.003 55.9521 225.097 55.9521C225.351 55.9521 225.551 55.957 225.697 55.9668V57.417H225.199C224.057 57.417 223.114 57.8174 222.372 58.6182C221.825 59.2139 221.449 59.8779 221.244 60.6104C221.088 61.1182 221.01 61.8506 221.01 62.8076V70H219.516ZM241.063 63.7451H229.184C229.291 64.9072 229.613 65.8691 230.15 66.6309C231.176 68.0957 232.567 68.8281 234.325 68.8281C235.458 68.8281 236.547 68.4473 237.592 67.6855C238.178 67.2461 238.637 66.7334 238.969 66.1475L240.214 66.8066C239.843 67.5391 239.301 68.1885 238.588 68.7549C237.357 69.751 235.951 70.249 234.369 70.249C232.973 70.249 231.708 69.8877 230.575 69.165C229.589 68.5205 228.847 67.6904 228.349 66.6748C227.831 65.5908 227.572 64.4238 227.572 63.1738C227.572 61.0938 228.183 59.3848 229.403 58.0469C230.712 56.6504 232.362 55.9521 234.354 55.9521C236.698 55.9521 238.505 56.8506 239.774 58.6475C240.673 59.8975 241.122 61.2793 241.122 62.793C241.122 63.0371 241.103 63.3545 241.063 63.7451ZM229.257 62.3389H239.467C239.408 61.2549 239.14 60.3564 238.661 59.6436C238.231 59.0088 237.665 58.4863 236.962 58.0762C236.161 57.6074 235.282 57.373 234.325 57.373C233.075 57.373 231.981 57.7686 231.044 58.5596C230.233 59.2529 229.696 60.166 229.433 61.2988C229.374 61.5234 229.315 61.8701 229.257 62.3389Z" fill="white"/>
</svg>
