<svg width="807" height="213" viewBox="0 0 807 213" fill="none" xmlns="http://www.w3.org/2000/svg">
<path d="M106.742 102.916C106.742 104.401 105.876 105.143 104.143 105.143C101.667 105.143 98.0285 104.723 93.2261 103.881C88.2752 102.99 84.6363 102.519 82.3094 102.47C72.6551 107.421 63.5949 109.896 55.1289 109.896C40.0286 109.896 27.0572 104.549 16.2148 93.8553C5.42179 83.1119 0.0252974 70.2148 0.0252974 55.164C0.0252974 39.7667 5.34752 26.7458 15.992 16.1014C26.6859 5.4074 39.7316 0.0604231 55.1289 0.0604231C62.4562 0.0604231 70.0311 1.69422 77.8535 4.96182C86.3691 8.47696 92.5825 13.0318 96.4937 18.6263C97.4344 19.9631 97.9047 21.1018 97.9047 22.0424C97.9047 23.5277 95.157 27.3152 89.6615 33.4048C84.5125 39.0983 80.9974 42.5392 79.116 43.7274C78.1258 44.371 77.1357 44.6928 76.1455 44.6928C75.3038 44.6928 73.0017 43.5294 69.239 41.2025C65.5258 38.826 61.4165 37.6378 56.9112 37.6378C52.1583 37.6378 48.1234 39.3706 44.8062 42.8363C41.5386 46.2524 39.9048 50.3616 39.9048 55.164C39.9048 59.9664 41.6377 64.1994 45.1033 67.8631C48.6184 71.5268 52.7524 73.3586 57.5053 73.3586C60.7234 73.3586 63.6197 72.7645 66.1942 71.5763C66.0951 70.3385 65.6991 66.8481 65.0059 61.1051C64.5109 56.7978 64.2633 53.3322 64.2633 50.7082C64.2633 50.1636 64.3623 49.6685 64.5604 49.2229C64.8574 48.9259 65.3773 48.7773 66.1199 48.7773C66.4665 48.7773 67.8032 48.9259 70.1301 49.2229C73.5958 49.619 78.4724 49.817 84.7601 49.817C86.9385 49.817 90.2061 49.718 94.5629 49.52C98.9197 49.3219 102.187 49.2229 104.366 49.2229C105.801 49.2229 106.519 49.817 106.519 51.0052C106.519 53.6787 106.272 57.689 105.777 63.036C105.331 68.3829 105.108 72.3932 105.108 75.0667C105.108 78.1857 105.381 82.9138 105.925 89.251C106.47 95.5387 106.742 100.093 106.742 102.916ZM172.168 36.8209C172.168 38.6527 172.02 41.45 171.723 45.2127C171.426 48.9259 171.277 51.7231 171.277 53.6045C171.277 55.4363 171.351 58.2088 171.5 61.922C171.648 65.5857 171.723 68.3334 171.723 70.1653C171.723 72.3437 169.445 73.4329 164.89 73.4329C163.851 73.4329 162.489 73.3833 160.806 73.2843C159.123 73.1358 158.058 73.0615 157.613 73.0615C154.048 73.0615 152.266 74.4478 152.266 77.2203C152.266 80.1413 152.439 84.5229 152.786 90.365C153.132 96.207 153.305 100.589 153.305 103.51C153.305 106.035 152.241 107.297 150.112 107.297C148.528 107.297 146.127 107.223 142.908 107.074C139.69 106.926 137.289 106.851 135.705 106.851C134.022 106.851 131.472 106.876 128.056 106.926C124.689 106.975 122.164 107 120.481 107C118.352 107 117.288 105.936 117.288 103.807V69.1256C117.288 58.3326 116.223 49.0496 114.094 41.2767C113.946 40.7321 113.871 40.2618 113.871 39.8657C113.871 38.8755 114.292 38.2319 115.134 37.9349C116.372 37.4893 118.971 37.0932 122.932 36.7466C127.536 36.3506 130.383 36.0535 131.472 35.8555C141.572 33.8256 146.943 32.8107 147.587 32.8107C148.577 32.8107 149.171 34.4445 149.369 37.7121C149.617 40.9797 150.087 42.6135 150.78 42.6135C150.335 42.6135 152.315 41.2767 156.721 38.6032C161.177 35.9297 165.683 34.593 170.237 34.593C171.525 34.593 172.168 35.3356 172.168 36.8209ZM253.487 67.4918C253.487 72.6407 251.878 75.6113 248.66 76.4034C247.521 76.7005 241.085 77.5174 229.351 78.8541L211.974 80.8592C212.568 82.5425 214.202 83.8793 216.875 84.8694C219.004 85.6121 221.182 85.9834 223.41 85.9834C225.638 85.9834 228.609 85.3645 232.322 84.1268C236.085 82.8891 238.238 82.2702 238.783 82.2702C239.575 82.2702 240.219 82.7158 240.714 83.607C241.456 85.2903 242.644 87.7657 244.278 91.0333C244.278 91.0828 245.219 92.4443 247.1 95.1178C248.784 97.4943 249.625 98.8063 249.625 99.0538C249.625 99.5984 249.303 100.168 248.66 100.762C243.164 106.059 233.683 108.708 220.217 108.708C207.345 108.708 197.294 105.663 190.066 99.5736C182.293 93.088 178.406 83.5575 178.406 70.9822C178.406 59.6446 182.144 50.1388 189.62 42.4649C197.146 34.791 206.528 30.9541 217.766 30.9541C227.569 30.9541 235.961 34.593 242.942 41.8708C249.972 49.0992 253.487 57.6395 253.487 67.4918ZM223.856 62.1448C223.856 60.6595 223.262 59.2485 222.073 57.9118C220.935 56.575 219.648 55.9066 218.212 55.9066C216.479 55.9066 214.87 56.5503 213.385 57.8375C211.949 59.0752 211.231 60.5357 211.231 62.2191C211.231 63.3578 212.048 63.9271 213.682 63.9271C214.622 63.9271 215.885 63.8033 217.469 63.5558C219.499 63.2587 220.761 63.0855 221.257 63.036C222.989 62.8874 223.856 62.5904 223.856 62.1448ZM335.622 67.4918C335.622 72.6407 334.013 75.6113 330.795 76.4034C329.657 76.7005 323.22 77.5174 311.487 78.8541L294.109 80.8592C294.703 82.5425 296.337 83.8793 299.011 84.8694C301.139 85.6121 303.318 85.9834 305.546 85.9834C307.774 85.9834 310.744 85.3645 314.457 84.1268C318.22 82.8891 320.374 82.2702 320.918 82.2702C321.71 82.2702 322.354 82.7158 322.849 83.607C323.592 85.2903 324.78 87.7657 326.414 91.0333C326.414 91.0828 327.354 92.4443 329.236 95.1178C330.919 97.4943 331.761 98.8063 331.761 99.0538C331.761 99.5984 331.439 100.168 330.795 100.762C325.3 106.059 315.819 108.708 302.352 108.708C289.48 108.708 279.43 105.663 272.201 99.5736C264.428 93.088 260.542 83.5575 260.542 70.9822C260.542 59.6446 264.28 50.1388 271.756 42.4649C279.281 34.791 288.663 30.9541 299.902 30.9541C309.704 30.9541 318.096 34.593 325.077 41.8708C332.107 49.0992 335.622 57.6395 335.622 67.4918ZM305.991 62.1448C305.991 60.6595 305.397 59.2485 304.209 57.9118C303.07 56.575 301.783 55.9066 300.347 55.9066C298.614 55.9066 297.005 56.5503 295.52 57.8375C294.084 59.0752 293.367 60.5357 293.367 62.2191C293.367 63.3578 294.183 63.9271 295.817 63.9271C296.758 63.9271 298.02 63.8033 299.605 63.5558C301.635 63.2587 302.897 63.0855 303.392 63.036C305.125 62.8874 305.991 62.5904 305.991 62.1448ZM426.373 104.252C426.373 106.282 425.457 107.297 423.625 107.297C421.942 107.297 419.441 107.223 416.124 107.074C412.807 106.926 410.332 106.851 408.698 106.851C406.965 106.851 404.366 106.876 400.9 106.926C397.484 106.975 394.91 107 393.177 107C391.246 107 390.28 105.738 390.28 103.213C390.28 100.935 390.33 97.5685 390.429 93.1127C390.528 88.6074 390.578 85.216 390.578 82.9386C390.578 81.2553 390.528 78.7303 390.429 75.3637C390.33 71.9971 390.28 69.4721 390.28 67.7888C390.28 64.9173 388.869 63.4815 386.047 63.4815C383.176 63.4815 381.74 64.8678 381.74 67.6403V103.51C381.74 106.035 380.676 107.297 378.547 107.297C376.963 107.297 374.561 107.223 371.343 107.074C368.125 106.926 365.724 106.851 364.14 106.851C362.456 106.851 359.907 106.876 356.491 106.926C353.124 106.975 350.599 107 348.916 107C346.787 107 345.722 105.936 345.722 103.807V69.1256C345.722 58.3821 344.559 48.7526 342.232 40.237C342.083 39.6924 342.009 39.2221 342.009 38.826C342.009 37.8853 342.43 37.2417 343.272 36.8952C348.322 36.2515 354.312 35.4346 361.243 34.4445C371.492 32.4641 377.383 31.4739 378.918 31.4739C379.908 31.4739 380.527 33.1077 380.775 36.3753C381.022 39.6429 381.418 41.2767 381.963 41.2767C381.567 41.2767 384.117 39.841 389.612 36.9694C395.157 34.0979 399.737 32.6621 403.351 32.6621C409.341 32.6621 414.515 34.0731 418.872 36.8952C423.872 40.2123 426.373 44.7176 426.373 50.4111V104.252ZM551.358 32.8849C551.358 33.8751 550.814 34.3702 549.724 34.3702C550.962 34.3702 544.773 33.9989 531.158 33.2563C530.96 41.9698 530.861 47.5891 530.861 50.1141C530.861 56.2037 531.109 65.3381 531.604 77.5174C532.149 89.6966 532.421 98.8063 532.421 104.846C532.421 106.332 531.678 107.074 530.193 107.074C528.114 107.074 524.945 106.975 520.687 106.777C516.43 106.53 513.236 106.406 511.107 106.406C509.077 106.406 506.033 106.505 501.973 106.703C497.913 106.901 494.868 107 492.838 107C491.205 107 490.388 106.282 490.388 104.846C490.388 98.8063 490.635 89.6966 491.13 77.5174C491.675 65.3381 491.947 56.2037 491.947 50.1141C491.947 47.6881 491.848 42.2174 491.65 33.7018C487.293 33.9989 480.758 34.5435 472.045 35.3356C471.253 34.9891 470.856 34.7663 470.856 34.6673C470.856 34.1227 471.277 31.5977 472.119 27.0924C473.06 22.191 473.579 19.3194 473.678 18.4778C473.827 13.923 474.322 8.45221 475.164 2.06554C475.312 1.66947 475.684 1.47143 476.278 1.47143C476.476 1.47143 476.872 1.52094 477.466 1.61996C487.368 2.70916 499.547 3.25376 514.004 3.25376C518.41 3.25376 526.678 2.6844 538.808 1.5457C544.848 0.951586 548.091 0.654532 548.536 0.654532C550.021 0.654532 550.764 1.02585 550.764 1.76849C550.764 3.55081 550.64 6.24906 550.393 9.86322C550.145 13.4279 550.021 16.1014 550.021 17.8837C550.021 19.567 550.244 22.0672 550.69 25.3843C551.135 28.7014 551.358 31.2016 551.358 32.8849ZM614.037 36.8209C614.037 38.6527 613.888 41.45 613.591 45.2127C613.294 48.9259 613.146 51.7231 613.146 53.6045C613.146 55.4363 613.22 58.2088 613.368 61.922C613.517 65.5857 613.591 68.3334 613.591 70.1653C613.591 72.3437 611.314 73.4329 606.759 73.4329C605.719 73.4329 604.358 73.3833 602.674 73.2843C600.991 73.1358 599.927 73.0615 599.481 73.0615C595.916 73.0615 594.134 74.4478 594.134 77.2203C594.134 80.1413 594.307 84.5229 594.654 90.365C595 96.207 595.174 100.589 595.174 103.51C595.174 106.035 594.109 107.297 591.98 107.297C590.396 107.297 587.995 107.223 584.777 107.074C581.559 106.926 579.158 106.851 577.573 106.851C575.89 106.851 573.34 106.876 569.924 106.926C566.558 106.975 564.033 107 562.349 107C560.22 107 559.156 105.936 559.156 103.807V69.1256C559.156 58.3326 558.091 49.0496 555.963 41.2767C555.814 40.7321 555.74 40.2618 555.74 39.8657C555.74 38.8755 556.161 38.2319 557.002 37.9349C558.24 37.4893 560.839 37.0932 564.8 36.7466C569.404 36.3506 572.251 36.0535 573.34 35.8555C583.44 33.8256 588.812 32.8107 589.455 32.8107C590.446 32.8107 591.04 34.4445 591.238 37.7121C591.485 40.9797 591.956 42.6135 592.649 42.6135C592.203 42.6135 594.184 41.2767 598.59 38.6032C603.046 35.9297 607.551 34.593 612.106 34.593C613.393 34.593 614.037 35.3356 614.037 36.8209ZM707.238 40.0142C707.238 40.3608 707.139 40.9797 706.94 41.8708C704.812 53.1589 703.747 62.2438 703.747 69.1256C703.747 74.4725 704.143 82.2455 704.935 92.4443C705.48 100.019 705.752 103.807 705.752 103.807C705.752 105.787 704.688 106.851 702.559 107C702.559 107 698.103 107 689.191 107C687.558 107 685.082 107.099 681.765 107.297C678.498 107.495 676.047 107.594 674.413 107.594C672.383 107.594 671.319 106.604 671.22 104.624C671.121 102.643 670.774 101.653 670.18 101.653C670.428 101.653 668.274 102.841 663.719 105.218C659.164 107.545 655.377 108.708 652.357 108.708C642.653 108.708 634.732 104.921 628.592 97.3457C622.849 90.2659 619.978 81.7256 619.978 71.7248C619.978 60.0902 623.221 50.4111 629.706 42.6877C635.103 36.3011 643.866 33.1077 655.996 33.1077C658.521 33.1077 662.061 33.9246 666.615 35.5584C671.17 37.1427 673.398 37.9349 673.299 37.9349C673.695 37.9349 674.017 37.0684 674.265 35.3356C674.562 33.6028 675.255 32.7364 676.344 32.7364C677.978 32.7364 682.854 33.5533 690.974 35.1871C698.747 36.7714 703.722 37.8853 705.901 38.529C706.792 38.826 707.238 39.3211 707.238 40.0142ZM670.18 70.0167C670.18 65.4619 667.952 63.1845 663.496 63.1845C661.466 63.1845 659.758 63.8281 658.372 65.1153C656.986 66.4026 656.293 68.0364 656.293 70.0167C656.293 71.9971 656.986 73.6061 658.372 74.8439C659.758 76.0816 661.466 76.7005 663.496 76.7005C665.427 76.7005 667.011 76.0816 668.249 74.8439C669.536 73.5566 670.18 71.9476 670.18 70.0167ZM755.954 16.844C755.954 27.2409 749.617 32.4394 736.943 32.4394C731.546 32.4394 727.14 31.2016 723.724 28.7262C719.862 25.9537 717.931 21.9929 717.931 16.844C717.931 11.9426 719.937 7.98187 723.947 4.96182C727.61 2.18931 731.943 0.803059 736.943 0.803059C741.943 0.803059 746.275 2.18931 749.939 4.96182C753.949 7.98187 755.954 11.9426 755.954 16.844ZM756.697 35.7069C756.697 36.0535 756.648 36.6971 756.549 37.6378C754.816 56.2532 753.949 68.0116 753.949 72.913C753.949 76.2301 754.024 81.2305 754.172 87.9143C754.37 94.5485 754.469 99.5489 754.469 102.916C754.469 104.549 754.42 105.49 754.321 105.738C754.073 106.579 753.306 107 752.018 107C750.286 107 747.686 106.901 744.221 106.703C740.805 106.505 738.23 106.406 736.497 106.406C734.765 106.406 732.165 106.505 728.7 106.703C725.284 106.901 722.709 107 720.976 107C719.689 107 718.922 106.579 718.674 105.738C718.575 105.49 718.526 104.549 718.526 102.916C718.526 99.5489 718.6 94.5485 718.748 87.9143C718.897 81.2305 718.971 76.2301 718.971 72.913C718.971 65.3876 718.13 53.6292 716.446 37.6378C716.298 36.6971 716.223 36.0288 716.223 35.6327C716.223 34.3454 716.991 33.7018 718.526 33.7018C720.506 33.7018 723.476 34.0236 727.437 34.6673C731.447 35.3109 734.467 35.6327 736.497 35.6327C738.527 35.6327 741.523 35.3109 745.483 34.6673C749.493 34.0236 752.489 33.7018 754.469 33.7018C755.954 33.7018 756.697 34.3702 756.697 35.7069ZM806.157 4.36771C806.157 4.66477 806.107 5.30838 806.008 6.29857C804.572 22.1415 803.854 37.514 803.854 52.4163C803.854 57.9118 803.929 66.1798 804.077 77.2203C804.275 88.2113 804.374 96.4546 804.374 101.95C804.374 104.079 804.35 105.218 804.3 105.366C804.053 106.455 803.26 107 801.924 107C800.191 107 797.592 106.901 794.126 106.703C790.71 106.505 788.135 106.406 786.403 106.406C784.67 106.406 782.07 106.505 778.605 106.703C775.189 106.901 772.614 107 770.881 107C769.495 107 768.678 106.455 768.431 105.366C768.431 105.218 768.431 104.079 768.431 101.95C768.431 96.4546 768.505 88.2113 768.654 77.2203C768.802 66.1798 768.876 57.9118 768.876 52.4163C768.876 47.0693 768.505 39.0736 767.762 28.4291C767.069 17.7847 766.723 9.81371 766.723 4.51624C766.723 3.47655 766.97 2.83293 767.465 2.58539C767.762 2.43686 768.233 2.36259 768.876 2.36259C770.857 2.36259 773.778 2.43686 777.639 2.58539C781.551 2.73391 784.472 2.80818 786.403 2.80818C788.333 2.80818 791.23 2.73391 795.091 2.58539C799.003 2.43686 801.924 2.36259 803.854 2.36259C805.389 2.36259 806.157 3.03097 806.157 4.36771ZM92.9142 174.304H85.8295V212H81.24V174.304H74.9573V170.026H81.24V162.63C81.24 158.946 82.1311 156.139 83.9135 154.208C85.874 152.129 88.3247 151.089 91.2655 151.089C91.4141 151.089 91.9636 151.119 92.9142 151.178V155.055C90.5378 155.352 88.9485 155.782 88.1465 156.347C86.5721 157.416 85.7849 159.51 85.7849 162.63V170.026H92.9142V174.304ZM120.095 169.269C126.57 169.269 131.858 171.749 135.957 176.71C139.047 180.483 140.591 185.265 140.591 191.058C140.591 194.385 139.893 197.623 138.497 200.771C136.715 204.752 133.878 207.856 129.987 210.084C126.868 211.866 123.481 212.757 119.827 212.757C115.787 212.757 112.104 211.718 108.777 209.638C102.509 205.717 99.3751 199.464 99.3751 190.879C99.3751 184.047 101.41 178.715 105.48 174.883C109.46 171.14 114.332 169.269 120.095 169.269ZM120.05 173.591C115.03 173.591 110.975 175.418 107.886 179.072C105.361 182.072 104.098 186.082 104.098 191.102C104.098 196.449 105.584 200.653 108.554 203.712C111.614 206.861 115.446 208.435 120.05 208.435C125.308 208.435 129.422 206.43 132.393 202.42C134.71 199.242 135.868 195.439 135.868 191.013C135.868 185.428 134.294 181.106 131.145 178.047C128.085 175.076 124.387 173.591 120.05 173.591ZM152.132 212V170.026H156.677V177.557C157.895 175.002 159.202 173.175 160.598 172.076C162.945 170.204 165.782 169.269 169.109 169.269C169.881 169.269 170.49 169.284 170.936 169.313V173.725H169.421C165.945 173.725 163.078 174.942 160.821 177.378C159.157 179.19 158.014 181.21 157.39 183.438C156.915 184.983 156.677 187.211 156.677 190.122V212H152.132ZM239.11 177.779V170.026H243.654V212H239.11V202.732C234.98 209.416 229.752 212.757 223.425 212.757C217.751 212.757 213.028 210.663 209.256 206.475C205.75 202.613 203.998 197.459 203.998 191.013C203.998 183.706 206.255 178.047 210.771 174.036C214.395 170.858 218.583 169.269 223.336 169.269C227.138 169.269 230.584 170.264 233.673 172.254C235.604 173.472 237.416 175.314 239.11 177.779ZM223.692 173.591C218.85 173.591 215.122 175.388 212.508 178.982C209.983 182.428 208.721 186.528 208.721 191.28C208.721 196.687 210.355 201.024 213.622 204.291C216.385 207.054 219.667 208.435 223.47 208.435C228.222 208.435 232.173 206.415 235.322 202.375C236.689 200.593 237.713 198.469 238.397 196.004C238.961 194.043 239.243 192.157 239.243 190.345C239.243 185.146 237.758 181.062 234.787 178.091C231.787 175.091 228.089 173.591 223.692 173.591ZM290.797 203.89V212H286.252V151.178H290.797V178.314C292.668 175.581 294.733 173.472 296.991 171.987C299.813 170.175 302.902 169.269 306.259 169.269C312.913 169.269 317.992 171.823 321.498 176.933C324.201 180.884 325.552 185.636 325.552 191.191C325.552 197.875 323.592 203.207 319.671 207.188C316.047 210.901 311.591 212.757 306.303 212.757C302.59 212.757 299.204 211.688 296.144 209.549C294.302 208.302 292.52 206.415 290.797 203.89ZM305.991 173.591C301.417 173.591 297.629 175.329 294.629 178.804C292.015 181.804 290.708 185.83 290.708 190.879C290.708 196.405 292.149 200.742 295.03 203.89C297.763 206.92 301.342 208.435 305.769 208.435C310.789 208.435 314.636 206.608 317.309 202.955C319.656 199.806 320.829 195.929 320.829 191.325C320.829 186.305 319.433 182.027 316.641 178.492C314.056 175.225 310.507 173.591 305.991 173.591ZM374.344 192.974H338.207C338.534 196.509 339.514 199.435 341.148 201.752C344.267 206.207 348.5 208.435 353.847 208.435C357.293 208.435 360.605 207.277 363.783 204.96C365.566 203.623 366.962 202.064 367.972 200.281L371.759 202.286C370.63 204.514 368.982 206.49 366.813 208.213C363.07 211.243 358.793 212.757 353.98 212.757C349.733 212.757 345.886 211.658 342.44 209.46C339.44 207.5 337.182 204.975 335.667 201.885C334.093 198.588 333.305 195.038 333.305 191.236C333.305 184.909 335.162 179.71 338.875 175.641C342.856 171.393 347.876 169.269 353.936 169.269C361.065 169.269 366.561 172.002 370.422 177.467C373.155 181.27 374.522 185.473 374.522 190.077C374.522 190.82 374.462 191.785 374.344 192.974ZM338.43 188.696H369.487C369.308 185.399 368.492 182.666 367.036 180.497C365.729 178.567 364.006 176.977 361.867 175.73C359.431 174.304 356.758 173.591 353.847 173.591C350.044 173.591 346.717 174.794 343.866 177.2C341.4 179.309 339.766 182.087 338.964 185.532C338.786 186.216 338.608 187.27 338.43 188.696ZM397.246 174.304H390.384V205.361C390.384 206.49 390.622 207.203 391.097 207.5C391.513 207.737 392.286 207.856 393.414 207.856H397.246V212H392.3C390.102 212 388.483 211.569 387.444 210.708C386.374 209.787 385.84 208.287 385.84 206.207V174.304H379.468V170.026H385.84V155.857H390.384V170.026H397.246V174.304ZM419.793 174.304H412.931V205.361C412.931 206.49 413.169 207.203 413.644 207.5C414.06 207.737 414.832 207.856 415.961 207.856H419.793V212H414.847C412.649 212 411.03 211.569 409.99 210.708C408.921 209.787 408.386 208.287 408.386 206.207V174.304H402.014V170.026H408.386V155.857H412.931V170.026H419.793V174.304ZM467.916 192.974H431.779C432.106 196.509 433.086 199.435 434.72 201.752C437.839 206.207 442.072 208.435 447.419 208.435C450.865 208.435 454.177 207.277 457.355 204.96C459.138 203.623 460.534 202.064 461.544 200.281L465.331 202.286C464.202 204.514 462.554 206.49 460.385 208.213C456.642 211.243 452.365 212.757 447.553 212.757C443.305 212.757 439.458 211.658 436.012 209.46C433.012 207.5 430.754 204.975 429.239 201.885C427.665 198.588 426.878 195.038 426.878 191.236C426.878 184.909 428.734 179.71 432.447 175.641C436.428 171.393 441.448 169.269 447.508 169.269C454.637 169.269 460.133 172.002 463.995 177.467C466.727 181.27 468.094 185.473 468.094 190.077C468.094 190.82 468.034 191.785 467.916 192.974ZM432.002 188.696H463.059C462.881 185.399 462.064 182.666 460.608 180.497C459.301 178.567 457.578 176.977 455.439 175.73C453.004 174.304 450.33 173.591 447.419 173.591C443.617 173.591 440.29 174.794 437.438 177.2C434.972 179.309 433.339 182.087 432.536 185.532C432.358 186.216 432.18 187.27 432.002 188.696ZM479.1 212V170.026H483.645V177.557C484.863 175.002 486.17 173.175 487.566 172.076C489.913 170.204 492.749 169.269 496.076 169.269C496.849 169.269 497.458 169.284 497.903 169.313V173.725H496.388C492.913 173.725 490.046 174.942 487.789 177.378C486.125 179.19 484.981 181.21 484.358 183.438C483.882 184.983 483.645 187.211 483.645 190.122V212H479.1ZM546.962 174.304H539.877V212H535.288V174.304H529.005V170.026H535.288V162.63C535.288 158.946 536.179 156.139 537.961 154.208C539.922 152.129 542.372 151.089 545.313 151.089C545.462 151.089 546.011 151.119 546.962 151.178V155.055C544.585 155.352 542.996 155.782 542.194 156.347C540.62 157.416 539.833 159.51 539.833 162.63V170.026H546.962V174.304ZM581.584 197.118V170.026H586.173V197.118C586.173 200.89 585.594 203.712 584.435 205.584C583.099 207.752 581.242 209.49 578.866 210.797C576.43 212.104 573.816 212.757 571.023 212.757C566.567 212.757 562.839 211.287 559.839 208.346C557.106 205.613 555.74 201.87 555.74 197.118V170.026H560.285V197.118C560.285 200.771 561.369 203.623 563.538 205.673C565.528 207.514 567.993 208.435 570.934 208.435C574.439 208.435 577.232 207.277 579.311 204.96C580.826 203.326 581.584 200.712 581.584 197.118ZM611.749 174.304H604.887V205.361C604.887 206.49 605.125 207.203 605.6 207.5C606.016 207.737 606.789 207.856 607.917 207.856H611.749V212H606.803C604.605 212 602.986 211.569 601.947 210.708C600.877 209.787 600.343 208.287 600.343 206.207V174.304H593.971V170.026H600.343V155.857H604.887V170.026H611.749V174.304ZM646.995 197.118V170.026H651.584V197.118C651.584 200.89 651.005 203.712 649.847 205.584C648.51 207.752 646.653 209.49 644.277 210.797C641.841 212.104 639.227 212.757 636.435 212.757C631.979 212.757 628.251 211.287 625.251 208.346C622.518 205.613 621.151 201.87 621.151 197.118V170.026H625.696V197.118C625.696 200.771 626.78 203.623 628.949 205.673C630.939 207.514 633.405 208.435 636.345 208.435C639.851 208.435 642.643 207.277 644.722 204.96C646.237 203.326 646.995 200.712 646.995 197.118ZM665.442 212V170.026H669.987V177.557C671.205 175.002 672.512 173.175 673.908 172.076C676.255 170.204 679.092 169.269 682.419 169.269C683.191 169.269 683.8 169.284 684.246 169.313V173.725H682.731C679.255 173.725 676.388 174.942 674.131 177.378C672.467 179.19 671.324 181.21 670.7 183.438C670.225 184.983 669.987 187.211 669.987 190.122V212H665.442ZM730.987 192.974H694.85C695.177 196.509 696.157 199.435 697.791 201.752C700.91 206.207 705.143 208.435 710.49 208.435C713.936 208.435 717.248 207.277 720.427 204.96C722.209 203.623 723.605 202.064 724.615 200.281L728.403 202.286C727.274 204.514 725.625 206.49 723.457 208.213C719.714 211.243 715.436 212.757 710.624 212.757C706.376 212.757 702.529 211.658 699.083 209.46C696.083 207.5 693.826 204.975 692.311 201.885C690.736 198.588 689.949 195.038 689.949 191.236C689.949 184.909 691.806 179.71 695.519 175.641C699.499 171.393 704.52 169.269 710.579 169.269C717.709 169.269 723.204 172.002 727.066 177.467C729.799 181.27 731.165 185.473 731.165 190.077C731.165 190.82 731.106 191.785 730.987 192.974ZM695.073 188.696H726.13C725.952 185.399 725.135 182.666 723.68 180.497C722.372 178.567 720.65 176.977 718.511 175.73C716.075 174.304 713.401 173.591 710.49 173.591C706.688 173.591 703.361 174.794 700.509 177.2C698.044 179.309 696.41 182.087 695.608 185.532C695.43 186.216 695.251 187.27 695.073 188.696Z" fill="#5C7345"/>
</svg>
