<svg width="335" height="90" viewBox="0 0 335 90" fill="none" xmlns="http://www.w3.org/2000/svg">
<path d="M44.6639 43.3061C44.6639 43.922 44.3045 44.23 43.5859 44.23C42.5593 44.23 41.0501 44.0555 39.0584 43.7064C37.0052 43.3369 35.496 43.1418 34.531 43.1213C30.5271 45.1745 26.7696 46.2012 23.2585 46.2012C16.9961 46.2012 11.6165 43.9836 7.11986 39.5486C2.64374 35.093 0.40568 29.7442 0.40568 23.5023C0.40568 17.1166 2.61294 11.7165 7.02747 7.30201C11.4625 2.86695 16.8729 0.649422 23.2585 0.649422C26.2974 0.649422 29.4389 1.327 32.683 2.68216C36.2147 4.13998 38.7915 6.02898 40.4136 8.34917C40.8037 8.90356 40.9988 9.37581 40.9988 9.76593C40.9988 10.3819 39.8592 11.9527 37.5801 14.4782C35.4447 16.8394 33.9869 18.2665 33.2066 18.7592C32.796 19.0262 32.3853 19.1596 31.9747 19.1596C31.6256 19.1596 30.6708 18.6771 29.1104 17.7121C27.5704 16.7265 25.8662 16.2337 23.9977 16.2337C22.0266 16.2337 20.3532 16.9524 18.9775 18.3897C17.6223 19.8064 16.9447 21.5106 16.9447 23.5023C16.9447 25.494 17.6634 27.2495 19.1007 28.7689C20.5585 30.2883 22.273 31.048 24.2441 31.048C25.5787 31.048 26.7799 30.8017 27.8476 30.3089C27.8065 29.7956 27.6423 28.348 27.3548 25.9662C27.1495 24.1799 27.0468 22.7426 27.0468 21.6543C27.0468 21.4285 27.0879 21.2232 27.17 21.0384C27.2932 20.9152 27.5088 20.8536 27.8168 20.8536C27.9605 20.8536 28.5149 20.9152 29.4799 21.0384C30.9172 21.2026 32.9397 21.2848 35.5474 21.2848C36.4508 21.2848 37.8059 21.2437 39.6128 21.1616C41.4197 21.0794 42.7749 21.0384 43.6783 21.0384C44.2737 21.0384 44.5715 21.2848 44.5715 21.7775C44.5715 22.8863 44.4688 24.5495 44.2635 26.767C44.0787 28.9845 43.9863 30.6477 43.9863 31.7564C43.9863 33.05 44.0992 35.0109 44.3251 37.639C44.5509 40.2467 44.6639 42.1357 44.6639 43.3061ZM71.7978 15.8949C71.7978 16.6546 71.7362 17.8147 71.613 19.3752C71.4898 20.9152 71.4282 22.0753 71.4282 22.8555C71.4282 23.6152 71.459 24.765 71.5206 26.305C71.5822 27.8244 71.613 28.964 71.613 29.7237C71.613 30.6271 70.6685 31.0788 68.7795 31.0788C68.3483 31.0788 67.7837 31.0583 67.0855 31.0172C66.3874 30.9557 65.946 30.9249 65.7612 30.9249C64.2828 30.9249 63.5437 31.4998 63.5437 32.6496C63.5437 33.861 63.6155 35.6782 63.7593 38.101C63.903 40.5239 63.9748 42.341 63.9748 43.5524C63.9748 44.5996 63.5334 45.1232 62.6505 45.1232C61.9934 45.1232 60.9976 45.0924 59.663 45.0308C58.3284 44.9692 57.3325 44.9384 56.6755 44.9384C55.9774 44.9384 54.9199 44.9487 53.5032 44.9692C52.107 44.9897 51.0598 45 50.3617 45C49.4788 45 49.0373 44.5585 49.0373 43.6756V29.2925C49.0373 24.8164 48.5959 20.9665 47.713 17.7429C47.6514 17.517 47.6206 17.322 47.6206 17.1577C47.6206 16.747 47.7951 16.4801 48.1442 16.3569C48.6575 16.1721 49.7354 16.0079 51.378 15.8641C53.2876 15.6999 54.4682 15.5767 54.9199 15.4945C59.1086 14.6527 61.3364 14.2318 61.6033 14.2318C62.014 14.2318 62.2604 14.9094 62.3425 16.2645C62.4452 17.6197 62.6402 18.2973 62.9277 18.2973C62.7429 18.2973 63.5642 17.7429 65.3916 16.6341C67.2395 15.5253 69.108 14.971 70.997 14.971C71.5309 14.971 71.7978 15.279 71.7978 15.8949ZM105.523 28.6149C105.523 30.7503 104.855 31.9823 103.521 32.3108C103.049 32.434 100.379 32.7728 95.513 33.3272L88.3061 34.1587C88.5525 34.8569 89.23 35.4112 90.3388 35.8219C91.2217 36.1299 92.1251 36.2839 93.0491 36.2839C93.9731 36.2839 95.205 36.0272 96.745 35.5139C98.3055 35.0006 99.1986 34.7439 99.4245 34.7439C99.753 34.7439 100.02 34.9287 100.225 35.2983C100.533 35.9964 101.026 37.0231 101.704 38.3782C101.704 38.3987 102.094 38.9634 102.874 40.0722C103.572 41.0577 103.921 41.6018 103.921 41.7045C103.921 41.9304 103.788 42.1665 103.521 42.4129C101.242 44.6099 97.3096 45.7084 91.7248 45.7084C86.3863 45.7084 82.2181 44.4456 79.2204 41.9201C75.9967 39.2303 74.3849 35.2778 74.3849 30.0625C74.3849 25.3605 75.9351 21.4182 79.0356 18.2357C82.1565 15.0531 86.0475 13.4618 90.7084 13.4618C94.7739 13.4618 98.2541 14.971 101.149 17.9893C104.065 20.987 105.523 24.5289 105.523 28.6149ZM93.2339 26.3974C93.2339 25.7814 92.9875 25.1962 92.4947 24.6419C92.0225 24.0875 91.4886 23.8103 90.8932 23.8103C90.1745 23.8103 89.5072 24.0772 88.8912 24.6111C88.2958 25.1244 87.9981 25.7301 87.9981 26.4282C87.9981 26.9004 88.3369 27.1366 89.0144 27.1366C89.4046 27.1366 89.9281 27.0852 90.5852 26.9826C91.427 26.8594 91.9506 26.7875 92.1559 26.767C92.8746 26.7054 93.2339 26.5822 93.2339 26.3974ZM139.586 28.6149C139.586 30.7503 138.919 31.9823 137.584 32.3108C137.112 32.434 134.443 32.7728 129.577 33.3272L122.37 34.1587C122.616 34.8569 123.294 35.4112 124.403 35.8219C125.285 36.1299 126.189 36.2839 127.113 36.2839C128.037 36.2839 129.269 36.0272 130.809 35.5139C132.369 35.0006 133.262 34.7439 133.488 34.7439C133.817 34.7439 134.084 34.9287 134.289 35.2983C134.597 35.9964 135.09 37.0231 135.767 38.3782C135.767 38.3987 136.157 38.9634 136.938 40.0722C137.636 41.0577 137.985 41.6018 137.985 41.7045C137.985 41.9304 137.851 42.1665 137.584 42.4129C135.305 44.6099 131.373 45.7084 125.788 45.7084C120.45 45.7084 116.282 44.4456 113.284 41.9201C110.06 39.2303 108.449 35.2778 108.449 30.0625C108.449 25.3605 109.999 21.4182 113.099 18.2357C116.22 15.0531 120.111 13.4618 124.772 13.4618C128.838 13.4618 132.318 14.971 135.213 17.9893C138.129 20.987 139.586 24.5289 139.586 28.6149ZM127.298 26.3974C127.298 25.7814 127.051 25.1962 126.558 24.6419C126.086 24.0875 125.552 23.8103 124.957 23.8103C124.238 23.8103 123.571 24.0772 122.955 24.6111C122.36 25.1244 122.062 25.7301 122.062 26.4282C122.062 26.9004 122.401 27.1366 123.078 27.1366C123.468 27.1366 123.992 27.0852 124.649 26.9826C125.491 26.8594 126.014 26.7875 126.22 26.767C126.938 26.7054 127.298 26.5822 127.298 26.3974ZM177.223 43.8604C177.223 44.7023 176.843 45.1232 176.083 45.1232C175.385 45.1232 174.348 45.0924 172.973 45.0308C171.597 44.9692 170.57 44.9384 169.893 44.9384C169.174 44.9384 168.096 44.9487 166.659 44.9692C165.242 44.9897 164.174 45 163.456 45C162.655 45 162.254 44.4764 162.254 43.4293C162.254 42.4847 162.275 41.0885 162.316 39.2406C162.357 37.3721 162.378 35.9656 162.378 35.0211C162.378 34.323 162.357 33.2758 162.316 31.8796C162.275 30.4834 162.254 29.4362 162.254 28.7381C162.254 27.5472 161.669 26.9518 160.499 26.9518C159.308 26.9518 158.713 27.5267 158.713 28.6765V43.5524C158.713 44.5996 158.271 45.1232 157.388 45.1232C156.731 45.1232 155.735 45.0924 154.401 45.0308C153.066 44.9692 152.07 44.9384 151.413 44.9384C150.715 44.9384 149.658 44.9487 148.241 44.9692C146.845 44.9897 145.798 45 145.099 45C144.217 45 143.775 44.5585 143.775 43.6756V29.2925C143.775 24.8369 143.293 20.8433 142.328 17.3117C142.266 17.0858 142.235 16.8908 142.235 16.7265C142.235 16.3364 142.41 16.0695 142.759 15.9257C144.853 15.6588 147.338 15.32 150.212 14.9094C154.462 14.0881 156.906 13.6774 157.542 13.6774C157.953 13.6774 158.21 14.355 158.312 15.7101C158.415 17.0653 158.579 17.7429 158.805 17.7429C158.641 17.7429 159.698 17.1474 161.977 15.9565C164.277 14.7656 166.176 14.1702 167.675 14.1702C170.16 14.1702 172.305 14.7554 174.112 15.9257C176.186 17.3014 177.223 19.1699 177.223 21.5312V43.8604ZM229.058 14.2626C229.058 14.6732 228.832 14.8786 228.38 14.8786C228.893 14.8786 226.327 14.7246 220.68 14.4166C220.598 18.0303 220.557 20.3608 220.557 21.408C220.557 23.9335 220.66 27.7218 220.865 32.7728C221.091 37.8238 221.204 41.6018 221.204 44.1068C221.204 44.7228 220.896 45.0308 220.28 45.0308C219.417 45.0308 218.103 44.9897 216.338 44.9076C214.572 44.8049 213.247 44.7536 212.364 44.7536C211.523 44.7536 210.26 44.7947 208.576 44.8768C206.893 44.9589 205.63 45 204.788 45C204.11 45 203.772 44.7023 203.772 44.1068C203.772 41.6018 203.874 37.8238 204.08 32.7728C204.305 27.7218 204.418 23.9335 204.418 21.408C204.418 20.4019 204.377 18.133 204.295 14.6014C202.488 14.7246 199.778 14.9504 196.164 15.279C195.836 15.1352 195.671 15.0428 195.671 15.0018C195.671 14.7759 195.846 13.7287 196.195 11.8603C196.585 9.82753 196.801 8.63663 196.842 8.28758C196.903 6.39857 197.109 4.12971 197.458 1.481C197.519 1.31673 197.673 1.2346 197.92 1.2346C198.002 1.2346 198.166 1.25514 198.413 1.2962C202.519 1.74792 207.57 1.97378 213.566 1.97378C215.393 1.97378 218.822 1.73765 223.853 1.2654C226.357 1.01901 227.702 0.895814 227.887 0.895814C228.503 0.895814 228.811 1.04981 228.811 1.3578C228.811 2.09698 228.76 3.21601 228.657 4.71489C228.554 6.19324 228.503 7.30201 228.503 8.04118C228.503 8.7393 228.596 9.7762 228.78 11.1519C228.965 12.5276 229.058 13.5645 229.058 14.2626ZM255.052 15.8949C255.052 16.6546 254.99 17.8147 254.867 19.3752C254.744 20.9152 254.682 22.0753 254.682 22.8555C254.682 23.6152 254.713 24.765 254.775 26.305C254.836 27.8244 254.867 28.964 254.867 29.7237C254.867 30.6271 253.923 31.0788 252.034 31.0788C251.602 31.0788 251.038 31.0583 250.34 31.0172C249.642 30.9557 249.2 30.9249 249.015 30.9249C247.537 30.9249 246.798 31.4998 246.798 32.6496C246.798 33.861 246.87 35.6782 247.013 38.101C247.157 40.5239 247.229 42.341 247.229 43.5524C247.229 44.5996 246.788 45.1232 245.905 45.1232C245.248 45.1232 244.252 45.0924 242.917 45.0308C241.582 44.9692 240.587 44.9384 239.93 44.9384C239.231 44.9384 238.174 44.9487 236.757 44.9692C235.361 44.9897 234.314 45 233.616 45C232.733 45 232.291 44.5585 232.291 43.6756V29.2925C232.291 24.8164 231.85 20.9665 230.967 17.7429C230.905 17.517 230.875 17.322 230.875 17.1577C230.875 16.747 231.049 16.4801 231.398 16.3569C231.912 16.1721 232.99 16.0079 234.632 15.8641C236.542 15.6999 237.722 15.5767 238.174 15.4945C242.363 14.6527 244.591 14.2318 244.857 14.2318C245.268 14.2318 245.514 14.9094 245.597 16.2645C245.699 17.6197 245.894 18.2973 246.182 18.2973C245.997 18.2973 246.818 17.7429 248.646 16.6341C250.494 15.5253 252.362 14.971 254.251 14.971C254.785 14.971 255.052 15.279 255.052 15.8949ZM293.705 17.2193C293.705 17.363 293.664 17.6197 293.581 17.9893C292.699 22.6707 292.257 26.4385 292.257 29.2925C292.257 31.51 292.421 34.7337 292.75 38.9634C292.976 42.1049 293.089 43.6756 293.089 43.6756C293.089 44.4969 292.647 44.9384 291.764 45C291.764 45 289.916 45 286.221 45C285.543 45 284.516 45.0411 283.141 45.1232C281.785 45.2053 280.769 45.2464 280.092 45.2464C279.25 45.2464 278.808 44.8357 278.767 44.0144C278.726 43.1931 278.582 42.7825 278.336 42.7825C278.439 42.7825 277.545 43.2753 275.656 44.2608C273.767 45.2259 272.197 45.7084 270.944 45.7084C266.92 45.7084 263.635 44.1376 261.089 40.9961C258.707 38.06 257.516 34.5181 257.516 30.3705C257.516 25.5453 258.861 21.5312 261.55 18.3281C263.789 15.6793 267.423 14.355 272.453 14.355C273.501 14.355 274.969 14.6938 276.858 15.3713C278.747 16.0284 279.671 16.3569 279.63 16.3569C279.794 16.3569 279.927 15.9976 280.03 15.279C280.153 14.5603 280.441 14.201 280.892 14.201C281.57 14.201 283.592 14.5398 286.96 15.2174C290.183 15.8744 292.247 16.3364 293.15 16.6033C293.52 16.7265 293.705 16.9318 293.705 17.2193ZM278.336 29.6621C278.336 27.7731 277.412 26.8286 275.564 26.8286C274.722 26.8286 274.014 27.0955 273.439 27.6294C272.864 28.1632 272.577 28.8408 272.577 29.6621C272.577 30.4834 272.864 31.1507 273.439 31.664C274.014 32.1773 274.722 32.434 275.564 32.434C276.365 32.434 277.022 32.1773 277.535 31.664C278.069 31.1302 278.336 30.4629 278.336 29.6621ZM313.909 7.61C313.909 11.9219 311.281 14.0778 306.024 14.0778C303.786 14.0778 301.959 13.5645 300.542 12.5378C298.941 11.388 298.14 9.7454 298.14 7.61C298.14 5.57726 298.971 3.93465 300.634 2.68216C302.154 1.53233 303.95 0.957412 306.024 0.957412C308.098 0.957412 309.895 1.53233 311.414 2.68216C313.077 3.93465 313.909 5.57726 313.909 7.61ZM314.217 15.4329C314.217 15.5767 314.196 15.8436 314.155 16.2337C313.437 23.954 313.077 28.8305 313.077 30.8633C313.077 32.2389 313.108 34.3127 313.17 37.0847C313.252 39.836 313.293 41.9098 313.293 43.3061C313.293 43.9836 313.272 44.3738 313.231 44.4764C313.129 44.8255 312.81 45 312.276 45C311.558 45 310.48 44.9589 309.043 44.8768C307.626 44.7947 306.558 44.7536 305.839 44.7536C305.121 44.7536 304.043 44.7947 302.606 44.8768C301.189 44.9589 300.121 45 299.403 45C298.869 45 298.55 44.8255 298.448 44.4764C298.407 44.3738 298.386 43.9836 298.386 43.3061C298.386 41.9098 298.417 39.836 298.479 37.0847C298.54 34.3127 298.571 32.2389 298.571 30.8633C298.571 27.7423 298.222 22.8658 297.524 16.2337C297.462 15.8436 297.431 15.5664 297.431 15.4021C297.431 14.8683 297.75 14.6014 298.386 14.6014C299.207 14.6014 300.439 14.7348 302.082 15.0018C303.745 15.2687 304.998 15.4021 305.839 15.4021C306.681 15.4021 307.924 15.2687 309.566 15.0018C311.229 14.7348 312.472 14.6014 313.293 14.6014C313.909 14.6014 314.217 14.8786 314.217 15.4329ZM334.729 2.43576C334.729 2.55896 334.708 2.82589 334.667 3.23654C334.072 9.80699 333.774 16.1824 333.774 22.3627C333.774 24.6419 333.805 28.0708 333.867 32.6496C333.949 37.2078 333.99 40.6265 333.99 42.9057C333.99 43.7886 333.98 44.2608 333.959 44.3224C333.856 44.7741 333.528 45 332.973 45C332.255 45 331.177 44.9589 329.74 44.8768C328.323 44.7947 327.255 44.7536 326.536 44.7536C325.818 44.7536 324.74 44.7947 323.303 44.8768C321.886 44.9589 320.818 45 320.099 45C319.525 45 319.186 44.7741 319.083 44.3224C319.083 44.2608 319.083 43.7886 319.083 42.9057C319.083 40.6265 319.114 37.2078 319.175 32.6496C319.237 28.0708 319.268 24.6419 319.268 22.3627C319.268 20.1452 319.114 16.8292 318.806 12.4146C318.518 8.00012 318.375 4.69436 318.375 2.49736C318.375 2.06618 318.477 1.79925 318.683 1.69659C318.806 1.63499 319.001 1.60419 319.268 1.60419C320.089 1.60419 321.301 1.63499 322.902 1.69659C324.524 1.75819 325.736 1.78899 326.536 1.78899C327.337 1.78899 328.538 1.75819 330.14 1.69659C331.762 1.63499 332.973 1.60419 333.774 1.60419C334.411 1.60419 334.729 1.88138 334.729 2.43576ZM38.9291 73.3664H35.9908V89H34.0875V73.3664H31.4819V71.5924H34.0875V68.5248C34.0875 66.9972 34.4571 65.833 35.1962 65.0322C36.0093 64.1698 37.0257 63.7386 38.2453 63.7386C38.3069 63.7386 38.5348 63.751 38.9291 63.7756V65.3833C37.9435 65.5065 37.2844 65.6851 36.9518 65.9192C36.2988 66.3627 35.9724 67.2313 35.9724 68.5248V71.5924H38.9291V73.3664ZM50.2015 71.2782C52.8872 71.2782 55.0801 72.3069 56.7802 74.3643C58.0614 75.9289 58.702 77.9124 58.702 80.3147C58.702 81.6945 58.4125 83.0373 57.8335 84.3432C57.0943 85.994 55.9178 87.2814 54.3039 88.2054C53.0104 88.9446 51.6059 89.3141 50.0906 89.3141C48.4152 89.3141 46.8875 88.883 45.5077 88.0206C42.9083 86.3944 41.6086 83.8011 41.6086 80.2408C41.6086 77.4073 42.4525 75.1959 44.1403 73.6067C45.7911 72.0544 47.8115 71.2782 50.2015 71.2782ZM50.183 73.0707C48.101 73.0707 46.4194 73.8284 45.1382 75.3437C44.091 76.588 43.5674 78.2511 43.5674 80.3332C43.5674 82.5507 44.1834 84.2939 45.4153 85.5628C46.6843 86.8687 48.2735 87.5216 50.183 87.5216C52.3636 87.5216 54.0699 86.6901 55.3018 85.0269C56.2628 83.7087 56.7432 82.1318 56.7432 80.2962C56.7432 77.9801 56.0903 76.1876 54.7844 74.9187C53.5155 73.6867 51.9817 73.0707 50.183 73.0707ZM63.4882 89V71.5924H65.3731V74.7154C65.8782 73.6559 66.4203 72.8983 66.9993 72.4424C67.9725 71.6663 69.1491 71.2782 70.5289 71.2782C70.8492 71.2782 71.1017 71.2844 71.2865 71.2967V73.1262H70.6582C69.2168 73.1262 68.028 73.6313 67.0917 74.6415C66.4018 75.393 65.9275 76.2307 65.6688 77.1547C65.4717 77.7953 65.3731 78.7193 65.3731 79.9266V89H63.4882ZM99.56 74.8078V71.5924H101.445V89H99.56V85.1563C97.8476 87.9282 95.6793 89.3141 93.0553 89.3141C90.7022 89.3141 88.7434 88.4456 87.1788 86.7086C85.7251 85.107 84.9982 82.9696 84.9982 80.2962C84.9982 77.2656 85.9345 74.9187 87.8071 73.2555C89.3101 71.9373 91.0472 71.2782 93.0183 71.2782C94.5952 71.2782 96.0243 71.691 97.3055 72.5164C98.1063 73.0215 98.8578 73.7853 99.56 74.8078ZM93.1661 73.0707C91.158 73.0707 89.6119 73.8161 88.5278 75.3068C87.4806 76.7358 86.9571 78.4359 86.9571 80.4071C86.9571 82.6492 87.6346 84.4479 88.9898 85.8031C90.1355 86.9488 91.4968 87.5216 93.0737 87.5216C95.0449 87.5216 96.6834 86.6839 97.9893 85.0084C98.556 84.2693 98.981 83.3884 99.2643 82.3659C99.4984 81.5528 99.6155 80.7705 99.6155 80.019C99.6155 77.8631 98.9995 76.1691 97.7675 74.9372C96.5232 73.6929 94.9894 73.0707 93.1661 73.0707ZM120.996 85.6367V89H119.111V63.7756H120.996V75.0296C121.772 73.8962 122.628 73.0215 123.565 72.4055C124.735 71.654 126.016 71.2782 127.408 71.2782C130.168 71.2782 132.275 72.3377 133.728 74.4567C134.85 76.0952 135.41 78.0663 135.41 80.3701C135.41 83.142 134.597 85.3534 132.971 87.0042C131.468 88.5442 129.62 89.3141 127.427 89.3141C125.887 89.3141 124.483 88.8706 123.214 87.9836C122.45 87.4662 121.711 86.6839 120.996 85.6367ZM127.298 73.0707C125.4 73.0707 123.83 73.7914 122.585 75.2328C121.501 76.4771 120.959 78.1464 120.959 80.2408C120.959 82.5322 121.557 84.3309 122.752 85.6367C123.885 86.8933 125.37 87.5216 127.205 87.5216C129.287 87.5216 130.883 86.764 131.991 85.2487C132.965 83.9428 133.451 82.3351 133.451 80.4256C133.451 78.3435 132.872 76.5695 131.714 75.1035C130.642 73.7483 129.17 73.0707 127.298 73.0707ZM155.645 81.1093H140.658C140.794 82.5753 141.2 83.7888 141.878 84.7497C143.171 86.5977 144.927 87.5216 147.144 87.5216C148.574 87.5216 149.947 87.0412 151.265 86.0803C152.005 85.5259 152.584 84.8791 153.002 84.1399L154.573 84.9715C154.105 85.8955 153.421 86.7147 152.522 87.4293C150.97 88.6859 149.196 89.3141 147.2 89.3141C145.438 89.3141 143.843 88.8583 142.414 87.9467C141.169 87.1336 140.233 86.0864 139.605 84.8052C138.952 83.4377 138.625 81.9655 138.625 80.3886C138.625 77.7645 139.395 75.6086 140.935 73.9208C142.586 72.1591 144.668 71.2782 147.181 71.2782C150.138 71.2782 152.417 72.4117 154.019 74.6785C155.152 76.2554 155.719 77.9986 155.719 79.9081C155.719 80.2161 155.694 80.6165 155.645 81.1093ZM140.751 79.3353H153.631C153.557 77.9678 153.218 76.8344 152.614 75.9351C152.072 75.1343 151.358 74.4752 150.471 73.9578C149.461 73.3664 148.352 73.0707 147.144 73.0707C145.568 73.0707 144.188 73.5697 143.005 74.5676C141.983 75.4423 141.305 76.5942 140.972 78.0232C140.898 78.3066 140.825 78.7439 140.751 79.3353ZM165.143 73.3664H162.298V86.2466C162.298 86.7147 162.396 87.0104 162.593 87.1336C162.766 87.2321 163.086 87.2814 163.554 87.2814H165.143V89H163.092C162.181 89 161.509 88.8214 161.078 88.4641C160.634 88.0822 160.413 87.46 160.413 86.5977V73.3664H157.77V71.5924H160.413V65.7159H162.298V71.5924H165.143V73.3664ZM174.494 73.3664H171.648V86.2466C171.648 86.7147 171.747 87.0104 171.944 87.1336C172.116 87.2321 172.437 87.2814 172.905 87.2814H174.494V89H172.443C171.531 89 170.86 88.8214 170.429 88.4641C169.985 88.0822 169.763 87.46 169.763 86.5977V73.3664H167.121V71.5924H169.763V65.7159H171.648V71.5924H174.494V73.3664ZM194.452 81.1093H179.465C179.6 82.5753 180.007 83.7888 180.685 84.7497C181.978 86.5977 183.734 87.5216 185.951 87.5216C187.38 87.5216 188.754 87.0412 190.072 86.0803C190.811 85.5259 191.39 84.8791 191.809 84.1399L193.38 84.9715C192.912 85.8955 192.228 86.7147 191.329 87.4293C189.776 88.6859 188.002 89.3141 186.007 89.3141C184.245 89.3141 182.65 88.8583 181.221 87.9467C179.976 87.1336 179.04 86.0864 178.412 84.8052C177.759 83.4377 177.432 81.9655 177.432 80.3886C177.432 77.7645 178.202 75.6086 179.742 73.9208C181.393 72.1591 183.475 71.2782 185.988 71.2782C188.945 71.2782 191.224 72.4117 192.826 74.6785C193.959 76.2554 194.526 77.9986 194.526 79.9081C194.526 80.2161 194.501 80.6165 194.452 81.1093ZM179.557 79.3353H192.438C192.364 77.9678 192.025 76.8344 191.421 75.9351C190.879 75.1343 190.165 74.4752 189.278 73.9578C188.267 73.3664 187.159 73.0707 185.951 73.0707C184.374 73.0707 182.995 73.5697 181.812 74.5676C180.789 75.4423 180.112 76.5942 179.779 78.0232C179.705 78.3066 179.631 78.7439 179.557 79.3353ZM199.09 89V71.5924H200.975V74.7154C201.48 73.6559 202.022 72.8983 202.601 72.4424C203.574 71.6663 204.751 71.2782 206.131 71.2782C206.451 71.2782 206.704 71.2844 206.888 71.2967V73.1262H206.26C204.819 73.1262 203.63 73.6313 202.694 74.6415C202.004 75.393 201.529 76.2307 201.271 77.1547C201.074 77.7953 200.975 78.7193 200.975 79.9266V89H199.09ZM227.234 73.3664H224.296V89H222.393V73.3664H219.787V71.5924H222.393V68.5248C222.393 66.9972 222.762 65.833 223.501 65.0322C224.315 64.1698 225.331 63.7386 226.551 63.7386C226.612 63.7386 226.84 63.751 227.234 63.7756V65.3833C226.249 65.5065 225.59 65.6851 225.257 65.9192C224.604 66.3627 224.278 67.2313 224.278 68.5248V71.5924H227.234V73.3664ZM241.593 82.8279V71.5924H243.496V82.8279C243.496 84.3925 243.256 85.5628 242.775 86.339C242.221 87.2383 241.451 87.959 240.466 88.5011C239.455 89.0431 238.371 89.3141 237.213 89.3141C235.365 89.3141 233.819 88.7043 232.575 87.4847C231.441 86.3513 230.875 84.799 230.875 82.8279V71.5924H232.76V82.8279C232.76 84.3432 233.209 85.5259 234.109 86.3759C234.934 87.1397 235.957 87.5216 237.176 87.5216C238.63 87.5216 239.788 87.0412 240.65 86.0803C241.279 85.4027 241.593 84.3185 241.593 82.8279ZM254.103 73.3664H251.257V86.2466C251.257 86.7147 251.356 87.0104 251.553 87.1336C251.726 87.2321 252.046 87.2814 252.514 87.2814H254.103V89H252.052C251.14 89 250.469 88.8214 250.038 88.4641C249.594 88.0822 249.373 87.46 249.373 86.5977V73.3664H246.73V71.5924H249.373V65.7159H251.257V71.5924H254.103V73.3664ZM268.721 82.8279V71.5924H270.624V82.8279C270.624 84.3925 270.384 85.5628 269.903 86.339C269.349 87.2383 268.579 87.959 267.593 88.5011C266.583 89.0431 265.499 89.3141 264.341 89.3141C262.493 89.3141 260.947 88.7043 259.703 87.4847C258.569 86.3513 258.002 84.799 258.002 82.8279V71.5924H259.887V82.8279C259.887 84.3432 260.337 85.5259 261.236 86.3759C262.062 87.1397 263.084 87.5216 264.304 87.5216C265.758 87.5216 266.916 87.0412 267.778 86.0803C268.406 85.4027 268.721 84.3185 268.721 82.8279ZM276.371 89V71.5924H278.256V74.7154C278.761 73.6559 279.303 72.8983 279.882 72.4424C280.855 71.6663 282.032 71.2782 283.412 71.2782C283.732 71.2782 283.984 71.2844 284.169 71.2967V73.1262H283.541C282.1 73.1262 280.911 73.6313 279.974 74.6415C279.285 75.393 278.81 76.2307 278.552 77.1547C278.354 77.7953 278.256 78.7193 278.256 79.9266V89H276.371ZM303.554 81.1093H288.567C288.703 82.5753 289.109 83.7888 289.787 84.7497C291.081 86.5977 292.836 87.5216 295.054 87.5216C296.483 87.5216 297.856 87.0412 299.175 86.0803C299.914 85.5259 300.493 84.8791 300.912 84.1399L302.482 84.9715C302.014 85.8955 301.33 86.7147 300.431 87.4293C298.879 88.6859 297.105 89.3141 295.109 89.3141C293.347 89.3141 291.752 88.8583 290.323 87.9467C289.079 87.1336 288.142 86.0864 287.514 84.8052C286.861 83.4377 286.535 81.9655 286.535 80.3886C286.535 77.7645 287.305 75.6086 288.845 73.9208C290.495 72.1591 292.577 71.2782 295.091 71.2782C298.047 71.2782 300.326 72.4117 301.928 74.6785C303.061 76.2554 303.628 77.9986 303.628 79.9081C303.628 80.2161 303.603 80.6165 303.554 81.1093ZM288.66 79.3353H301.54C301.466 77.9678 301.127 76.8344 300.524 75.9351C299.981 75.1343 299.267 74.4752 298.38 73.9578C297.37 73.3664 296.261 73.0707 295.054 73.0707C293.477 73.0707 292.097 73.5697 290.914 74.5676C289.892 75.4423 289.214 76.5942 288.882 78.0232C288.808 78.3066 288.734 78.7439 288.66 79.3353Z" fill="black"/>
</svg>
