<?xml version="1.0" standalone="no"?>
<!DOCTYPE svg PUBLIC "-//W3C//DTD SVG 20010904//EN"
 "http://www.w3.org/TR/2001/REC-SVG-20010904/DTD/svg10.dtd">
<svg version="1.0" xmlns="http://www.w3.org/2000/svg"
 width="988.000000pt" height="1280.000000pt" viewBox="0 0 988.000000 1280.000000"
 preserveAspectRatio="xMidYMid meet">
<metadata>
Created by potrace 1.15, written by Peter Selinger 2001-2017
</metadata>
<g transform="translate(0.000000,1280.000000) scale(0.100000,-0.100000)"
fill="#000000" stroke="none">
<path d="M6431 12785 c-232 -41 -466 -203 -880 -609 -271 -267 -422 -456 -484
-603 l-32 -78 -1 -220 c0 -204 -2 -227 -27 -320 -55 -209 -115 -350 -176 -409
l-37 -36 -55 53 c-68 66 -123 87 -229 87 -90 0 -162 -17 -276 -67 l-84 -36
-92 23 c-128 32 -253 32 -325 1 -90 -40 -140 -110 -164 -231 l-12 -61 -198
-100 c-109 -55 -237 -125 -284 -154 l-85 -54 -21 42 c-44 87 -178 233 -304
330 -28 22 -14 3 46 -63 113 -126 188 -215 228 -273 l32 -48 -23 -18 -23 -19
-37 57 c-57 88 -158 155 -274 184 -115 29 -118 27 -29 -17 87 -43 215 -138
282 -208 l32 -33 -23 -30 -23 -29 -33 38 c-74 84 -179 131 -315 141 l-80 6 86
-30 c107 -37 216 -90 280 -137 27 -20 49 -38 49 -40 0 -2 -6 -14 -13 -27 -6
-12 -13 -23 -14 -25 0 -2 -20 10 -43 27 -68 49 -144 73 -250 78 -52 3 -93 3
-90 0 3 -2 68 -26 145 -51 154 -51 222 -85 216 -107 -2 -8 -6 -43 -9 -79 -2
-36 -7 -68 -11 -71 -3 -4 -206 6 -451 22 -245 15 -457 28 -472 29 l-28 0 20
33 c42 68 14 158 -74 235 -62 55 -103 64 -161 36 -33 -15 -35 -15 -70 11 -48
37 -109 44 -161 17 -22 -11 -46 -28 -54 -37 -11 -14 -26 -15 -84 -10 -104 10
-156 -16 -156 -78 0 -29 -3 -32 -33 -34 -47 -3 -77 -42 -77 -100 l0 -45 -57 7
c-471 57 -747 177 -797 345 l-13 44 -6 -49 c-37 -285 -54 -685 -34 -759 l8
-29 42 40 c105 101 270 207 377 243 61 20 168 29 190 15 6 -3 10 -25 10 -49 0
-110 58 -183 162 -205 l27 -6 -50 -60 c-447 -533 -753 -995 -814 -1230 -25
-98 -16 -141 39 -174 55 -33 266 -93 351 -100 l80 -6 -4 -194 -4 -194 24 6
c151 38 551 45 724 13 198 -36 408 -113 556 -203 l67 -40 7 89 c4 50 13 116
21 147 17 67 85 210 111 233 10 8 57 36 105 62 l87 47 -25 -83 c-50 -165 -153
-466 -209 -613 -79 -206 -142 -341 -226 -487 -232 -402 -630 -1122 -756 -1368
-195 -382 -339 -721 -359 -849 -6 -39 31 -147 64 -184 32 -37 188 -100 520
-211 462 -155 650 -228 1023 -397 l155 -71 0 -131 c-1 -202 22 -259 178 -440
85 -98 96 -125 71 -163 -10 -15 -14 -35 -11 -49 9 -34 130 -159 266 -275 92
-79 120 -109 126 -133 34 -161 177 -347 392 -509 l92 -69 0 -103 c0 -57 -7
-172 -15 -257 -35 -368 -84 -525 -201 -644 -85 -86 -130 -108 -244 -115 -121
-9 -152 -23 -254 -120 -45 -41 -105 -92 -134 -114 -29 -21 -57 -47 -63 -58
-15 -29 9 -59 70 -87 40 -19 48 -27 39 -38 -6 -7 -8 -17 -3 -21 4 -4 80 -6
168 -4 89 1 203 -2 254 -8 157 -17 276 10 356 80 35 30 39 31 56 16 27 -24 83
-20 185 15 169 58 261 114 301 183 49 85 67 179 90 466 21 263 50 454 76 503
23 43 36 -10 79 -338 40 -298 56 -365 90 -365 27 0 45 -28 80 -125 48 -133 74
-179 135 -238 60 -60 170 -123 231 -132 25 -4 55 -1 84 9 37 13 47 13 60 2 38
-34 84 -48 152 -47 38 0 73 3 78 6 5 3 27 -8 50 -24 80 -58 179 -63 289 -15
48 22 61 24 101 15 124 -27 180 -22 180 17 0 31 -54 105 -125 171 -51 48 -94
76 -165 109 -285 132 -314 149 -379 214 -101 102 -181 290 -212 498 -17 121
-7 376 19 457 41 130 79 173 299 338 160 120 185 151 219 278 23 85 64 129
216 236 167 117 182 131 215 199 24 49 27 71 34 206 4 89 16 189 28 243 22 95
48 183 59 195 4 3 95 18 202 33 301 40 794 125 808 140 2 2 -10 69 -28 150
-18 80 -29 152 -26 160 17 44 251 175 456 255 47 18 86 34 88 35 2 2 -13 41
-33 88 -73 177 -125 347 -125 408 0 22 19 43 113 121 201 168 463 366 472 356
2 -2 5 -192 6 -423 l1 -419 -77 -33 c-108 -46 -201 -110 -278 -192 -114 -121
-162 -253 -155 -425 3 -95 6 -106 46 -189 103 -212 290 -311 592 -311 122 0
140 2 183 23 64 32 126 110 187 235 62 128 100 259 101 347 1 84 -31 161 -112
269 -98 131 -210 228 -305 262 l-34 12 0 476 0 476 53 31 c154 94 331 149 683
213 153 27 324 62 379 76 101 26 417 129 488 159 l39 16 -26 20 c-49 38 -150
175 -187 254 -62 131 -64 123 35 189 264 175 396 416 342 625 -33 128 -156
326 -283 454 -151 152 -306 173 -543 72 -179 -75 -527 -344 -831 -642 l-156
-153 -37 56 c-50 75 -115 135 -189 175 -58 32 -68 34 -159 34 l-98 0 -104 110
c-57 61 -129 130 -159 153 l-55 43 127 177 c270 374 327 455 351 497 24 42 24
44 7 79 -9 19 -36 49 -59 66 -57 42 -412 247 -518 300 l-84 42 29 24 c61 49
144 77 268 89 l68 7 -35 24 c-122 83 -292 139 -405 132 l-67 -3 57 55 c104
102 137 215 86 291 -14 20 -81 73 -167 131 -159 105 -171 117 -295 290 -134
185 -164 186 -230 6 -21 -57 -61 -155 -90 -218 -29 -63 -69 -156 -90 -207
l-37 -92 -28 21 c-23 16 -38 20 -77 16 -26 -3 -57 -9 -68 -13 -19 -8 -19 -7 1
16 37 42 47 88 51 254 6 215 -16 465 -44 503 -41 57 -167 100 -328 114 -27 3
-31 7 -38 50 -9 45 -7 50 27 97 90 123 315 300 495 390 42 21 164 76 271 121
361 152 499 232 744 428 204 164 392 360 529 553 191 269 435 1018 414 1267
-10 118 -54 182 -124 182 -78 0 -154 -65 -431 -370 -206 -226 -288 -295 -479
-404 -202 -116 -494 -326 -672 -485 -113 -100 -199 -205 -386 -466 -230 -322
-334 -430 -538 -558 -84 -53 -234 -123 -243 -114 -3 3 41 54 98 114 391 414
678 798 815 1090 23 51 84 195 134 320 49 125 117 280 150 343 73 138 254 434
327 532 64 87 66 113 15 135 -53 22 -244 26 -352 8z m-5439 -3295 c50 0 50 0
62 -71 6 -35 5 -38 -39 -63 -40 -24 -49 -26 -82 -16 -65 20 -105 64 -117 129
l-6 34 67 -6 c38 -4 89 -7 115 -7z m1010 -66 l67 -7 3 -36 c7 -76 -24 -111
-97 -111 -63 0 -80 13 -105 82 -12 34 -25 69 -28 77 -4 11 4 13 44 8 27 -4 79
-9 116 -13z m548 -14 l227 0 7 -67 c7 -67 7 -68 -21 -88 -15 -11 -64 -56 -109
-100 -146 -147 -179 -251 -172 -536 l5 -179 -43 64 c-71 106 -193 323 -254
451 -53 111 -100 226 -100 243 0 4 20 15 44 25 23 10 56 31 72 48 25 27 29 38
29 91 l0 60 44 -6 c24 -3 146 -6 271 -6z m4006 -2965 c25 -54 85 -101 151
-120 78 -23 82 -25 125 -76 l38 -45 -16 -42 c-15 -38 -15 -45 0 -93 25 -76 75
-149 171 -248 l84 -87 -165 -82 c-90 -45 -169 -82 -174 -82 -12 0 -20 17 -71
169 -50 146 -100 351 -139 565 -33 187 -32 176 -25 176 2 0 11 -16 21 -35z"/>
</g>
</svg>
